<svg id="Layer_1" data-name="Layer 1" xmlns="http://www.w3.org/2000/svg" viewBox="0 0 802.08 372.09"><defs><style>.cls-1,.cls-2{fill:#ffc006;}.cls-2{fill-rule:evenodd;}.cls-3{isolation:isolate;}.cls-4{fill:#ffc006;}</style></defs><title>Desi Halal Meat Market RR</title><path class="cls-1" d="M189.24,326a18.89,18.89,0,0,1-2.57-4.22,18.21,18.21,0,0,1-1.1-6.79V235a23.87,23.87,0,0,0-1.83-9,21.88,21.88,0,0,0-5-7.15,22.71,22.71,0,0,0-7.16-4.59,22.07,22.07,0,0,0-8.25-1.65,28.33,28.33,0,0,0-8.63,1.47,16.42,16.42,0,0,0-7.15,4.77l-.19.18a19.29,19.29,0,0,0-7.33-4.58,24.57,24.57,0,0,0-8.44-1.65,34.9,34.9,0,0,0-7.34.91,19.54,19.54,0,0,0-6.42,3.3,34.52,34.52,0,0,0-5.32-8.07,56.44,56.44,0,0,0-6.61-6.6,49.51,49.51,0,0,0-15.22-8.44,39.21,39.21,0,0,0-16.52-1.84,47.35,47.35,0,0,0-15.41,4.77,43.15,43.15,0,0,0-13.2,9.91,46.94,46.94,0,0,0-9.18,14.86c-2.38,5.69-3.3,11.93-3.3,18.9a38.59,38.59,0,0,0,11.37,27.15A32,32,0,0,0,56.05,275a39,39,0,0,0,13.76,2.57A36,36,0,0,0,85,274.29l-5-11.19a28,28,0,0,1-10.28,2.2,25.2,25.2,0,0,1-9-1.65,21.41,21.41,0,0,1-7.7-4.95,23.3,23.3,0,0,1-5.51-8.07A32.57,32.57,0,0,1,45.41,240a36.19,36.19,0,0,1,2.39-14.31,33.74,33.74,0,0,1,6.78-11,32,32,0,0,1,9.91-7.16,32.43,32.43,0,0,1,11.38-3.3,31.28,31.28,0,0,1,11.37,1.1,35.94,35.94,0,0,1,11.37,6.06,32.08,32.08,0,0,1,8.44,10.09A30.11,30.11,0,0,1,110.17,235V311.9h12.11V235.4a13,13,0,0,1,2.39-7.34c1.65-2.2,4-3.3,7.33-3.3a10,10,0,0,1,7.16,2.94,9.38,9.38,0,0,1,3.12,7.33v77.06h12.11V235.58a12.48,12.48,0,0,1,2.38-7.33c1.65-2.39,3.85-3.49,7.16-3.49a9.79,9.79,0,0,1,7.33,2.94,10.23,10.23,0,0,1,2.76,7.52v80.17a30.78,30.78,0,0,0,2,11.37c.55,1.29,1.1,2.39,1.66,3.49,4.58-.74,9.54-1.47,14.86-2a14.66,14.66,0,0,1-3.31-2.2" transform="translate(-33.12 -33.93)"/><path class="cls-1" d="M230,209.72l-9.17,9.35-9.18-9.35-9.35,9.54,9.35,9.35,9.18-8.8,9.17,8.8,9.54-9.35Zm-9.36,90.07c-3.11,0-5.32-1.1-6.78-3.66a15.12,15.12,0,0,1-2-8.08v-7h23.11a6.27,6.27,0,0,0,4.41-1.65A6,6,0,0,0,241,275V261.45a29.87,29.87,0,0,0-1.29-9.17,19.69,19.69,0,0,0-4.22-7.71q-5.78-6.6-15.41-6.6a21.23,21.23,0,0,0-7.7,1.47,16.61,16.61,0,0,0-6.42,4.4,20.84,20.84,0,0,0-4.59,7,23.51,23.51,0,0,0-1.65,8.81v29a29.47,29.47,0,0,0,1.47,8.81,27,27,0,0,0,4,7.52,20.65,20.65,0,0,0,6.61,5.32,19.61,19.61,0,0,0,9,2h40.73V300.16l-40.92-.37Zm-9-40.54c0-3.3.92-5.87,2.76-7.34a8.79,8.79,0,0,1,5.5-2.2c3.3,0,5.5,1.1,6.79,3.3a16.24,16.24,0,0,1,1.83,8.26V269H211.44l.18-9.72Z" transform="translate(-33.12 -33.93)"/><path class="cls-1" d="M307,299.79a7.4,7.4,0,0,1-6.78-3.66,15.12,15.12,0,0,1-2-8.08V243.84h-9.54a68,68,0,0,0,7.52-7,37.63,37.63,0,0,0,5.87-8.26l-9-6.23c-1.83,3.3-4.95,6.6-9,9.9-4.22,3.3-8.25,6.42-12.11,9.73a52.67,52.67,0,0,0-11.19,12.47q-5,7.43-5,18.16v18a20.28,20.28,0,0,0,1.83,9v.18a19.31,19.31,0,0,0,3.86,5.88l.73.73a26.14,26.14,0,0,0,6.6,4.4,21.32,21.32,0,0,0,7.71,1.47c6.6,0,11.92-2.2,16-6.42a14.51,14.51,0,0,0,6.79,4.59,24.34,24.34,0,0,0,8.07,1.46h15.78V299.79Zm-21.09-10.45a14.66,14.66,0,0,1-2.39,7.52c-1.47,2.2-3.85,3.3-7.34,3.3a9,9,0,0,1-5.87-2.38q-2.74-2.47-2.75-7.16v-18a20.39,20.39,0,0,1,3.3-11.56,53.35,53.35,0,0,1,8.81-9.9l6.05-4.77.19,42.93Z" transform="translate(-33.12 -33.93)"/><path class="cls-1" d="M336.56,299.79a7.52,7.52,0,0,1-7-3.66,17.67,17.67,0,0,1-2-8.26V251h12.29l4-12.1H327.57v-38H315.46v38h-7.89V251h7.89v37.06a29.2,29.2,0,0,0,1.29,8.81c.36,1.1.73,2,1.1,2.93a20.41,20.41,0,0,0,2.93,4.77,9.32,9.32,0,0,0,1.84,2,25.76,25.76,0,0,0,4.58,3.3,20.43,20.43,0,0,0,9.18,2h23.85l6-12.11Z" transform="translate(-33.12 -33.93)"/><path class="cls-1" d="M544.24,321.63a17.69,17.69,0,0,1-1.11-6.61V235a20.84,20.84,0,0,0-1.83-9,25,25,0,0,0-4.95-7.15,22.71,22.71,0,0,0-7.16-4.59,21.39,21.39,0,0,0-8.25-1.65,28.33,28.33,0,0,0-8.63,1.47,16.42,16.42,0,0,0-7.15,4.77l-.19.18a20.9,20.9,0,0,0-7.33-4.58,24.57,24.57,0,0,0-8.44-1.65,33.43,33.43,0,0,0-7.34.91,19.54,19.54,0,0,0-6.42,3.3,41.31,41.31,0,0,0-5.32-8.07,46.71,46.71,0,0,0-6.79-6.6,47.57,47.57,0,0,0-15.23-8.44,39.67,39.67,0,0,0-16.69-1.84A47.28,47.28,0,0,0,416,196.87a43.07,43.07,0,0,0-13.21,9.91,47.1,47.1,0,0,0-9.17,14.86c-2.39,5.69-3.31,11.93-3.31,18.9A42.16,42.16,0,0,0,393.62,256a38.16,38.16,0,0,0,8.07,11.74A33.49,33.49,0,0,0,413.25,275,39,39,0,0,0,427,277.6a36,36,0,0,0,15.22-3.31l-4.77-11.19a28,28,0,0,1-10.27,2.2,25.16,25.16,0,0,1-9-1.65,21.45,21.45,0,0,1-7.71-4.95,21.08,21.08,0,0,1-5.5-8.07,32.31,32.31,0,0,1-2.2-10.64,33.25,33.25,0,0,1,2.38-14.31,33.77,33.77,0,0,1,6.79-11,32,32,0,0,1,9.91-7.16,32.44,32.44,0,0,1,11.37-3.3,28,28,0,0,1,11.38,1.29A34.29,34.29,0,0,1,456,211.55a32.19,32.19,0,0,1,8.44,10.09,30.15,30.15,0,0,1,3.12,13.58v76.87h12.11V235.58a11.71,11.71,0,0,1,2.38-7.33c1.65-2.21,4-3.31,7.34-3.31a10,10,0,0,1,7.16,2.94,9.3,9.3,0,0,1,2.93,7.34v77h12.11v-76.5a12.48,12.48,0,0,1,2.38-7.34,8.1,8.1,0,0,1,7.16-3.49,9.83,9.83,0,0,1,7.34,2.94,10.37,10.37,0,0,1,2.93,7.52v80.17a31.76,31.76,0,0,0,1.1,8.62c4.77.19,9.18.19,13.4.37a9.53,9.53,0,0,1-1.65-2.93" transform="translate(-33.12 -33.93)"/><path class="cls-1" d="M608.45,299.79a7.43,7.43,0,0,1-6.79-3.66,15.25,15.25,0,0,1-2.2-8.08V243.84h-9.54a68,68,0,0,0,7.52-7,37.63,37.63,0,0,0,5.87-8.26l-8.81-6.23c-1.83,3.3-5,6.6-9.17,9.9s-8.26,6.42-12.11,9.73A52.67,52.67,0,0,0,562,254.48q-4.95,7.43-4.95,18.16v18a23.13,23.13,0,0,0,1.65,9,19.8,19.8,0,0,0,4.77,6.79,26.14,26.14,0,0,0,6.6,4.4,21.32,21.32,0,0,0,7.71,1.47c6.6,0,11.92-2.2,16-6.42a14.46,14.46,0,0,0,6.79,4.59,24.34,24.34,0,0,0,8.07,1.46h15.78V299.79Zm-20.92-10.45a14.65,14.65,0,0,1-2.38,7.52c-1.47,2.2-3.86,3.3-7.34,3.3a8.24,8.24,0,0,1-5.69-2.38q-2.75-2.47-2.75-7.16v-18a20.39,20.39,0,0,1,3.3-11.56,53.35,53.35,0,0,1,8.81-9.9l6-4.77v42.93Z" transform="translate(-33.12 -33.93)"/><path class="cls-1" d="M652.48,238.89H638c-6.6,0-11.74,2.38-15.59,7a26.26,26.26,0,0,0-5.51,16.88V311.9H629v-49a36.74,36.74,0,0,1,.37-4.22,11.92,11.92,0,0,1,1.47-3.85,10.23,10.23,0,0,1,2.75-2.94,7.85,7.85,0,0,1,4.4-1.1h18.35Z" transform="translate(-33.12 -33.93)"/><path class="cls-1" d="M711.92,299.79V287.87a27.77,27.77,0,0,0-3.86-14.13,17.49,17.49,0,0,0-11.74-8.44l19.45-26.23H702.19L680,266.41V199.08h-12.1v113H680V286.77a10.41,10.41,0,0,1,2.94-7.34,9.4,9.4,0,0,1,7.15-3.3,9.3,9.3,0,0,1,7.16,3.12,11.67,11.67,0,0,1,2.75,8.07v18.9a5.81,5.81,0,0,0,2,4.22,6.7,6.7,0,0,0,4.59,1.65h29.17V300l-23.85-.19Z" transform="translate(-33.12 -33.93)"/><path class="cls-1" d="M757.78,209.72l-9.17,9.35-9.18-9.35-9.35,9.54,9.35,9.35,9.18-8.8,9.17,8.8,9.54-9.35Zm-9.54,90.07c-3.12,0-5.32-1.1-6.79-3.66a15.21,15.21,0,0,1-2-8.08v-7h23.12a6.23,6.23,0,0,0,4.4-1.65,6,6,0,0,0,1.65-4.4V261.45a29.86,29.86,0,0,0-1.28-9.17,19.82,19.82,0,0,0-4.22-7.71q-5.77-6.6-15.41-6.6a21.23,21.23,0,0,0-7.7,1.47,16.72,16.72,0,0,0-6.43,4.4,24.17,24.17,0,0,0-4.58,7,23.64,23.64,0,0,0-1.84,8.81v29a29.47,29.47,0,0,0,1.47,8.81l1.1,2.75a21,21,0,0,0,2.94,4.77,32.43,32.43,0,0,0,2.57,2.75,17.36,17.36,0,0,0,3.85,2.57,19.61,19.61,0,0,0,9,2h40.72V300.16l-40.54-.37Zm-8.81-40.54c0-3.3.92-5.87,2.76-7.34a8.79,8.79,0,0,1,5.5-2.2c3.3,0,5.5,1.1,6.79,3.3a16.24,16.24,0,0,1,1.83,8.26V269H739.43v-9.72Z" transform="translate(-33.12 -33.93)"/><path class="cls-1" d="M804.38,299.79a7.52,7.52,0,0,1-7-3.66,17.67,17.67,0,0,1-2-8.26V251h12.29l4-12.1H795.39v-38H783.28v38h-7.89V251h7.89v37.06a29.2,29.2,0,0,0,1.29,8.81c.36,1.1.73,2,1.1,2.93a20.41,20.41,0,0,0,2.93,4.77l.37.37a23,23,0,0,0,6.24,4.95,19.58,19.58,0,0,0,9,2h23.85l6.05-12.11Z" transform="translate(-33.12 -33.93)"/><path class="cls-2" d="M834.1,299.79c-2.39,4.59-6.79,8.63-12.84,12.11C778.33,337,650.09,340.34,554.33,339.79H546.8c-42.19-.37-77-1.29-94.29-1.29-94.12,0-348.58-19.44-401.23,67.52,72.84-33.21,229.51-45.87,401.23-40.18,110.8,3.67,376.82,5,382.69-66h-1.1Z" transform="translate(-33.12 -33.93)"/><g class="cls-3"><path class="cls-4" d="M196.65,156.84V61.2l-1.07-2.33a37.14,37.14,0,0,1-2-6.37,32.45,32.45,0,0,1-.71-6.91,39.92,39.92,0,0,1,1.79-11.66l10.41,3c-.48,1.68-.84,3.17-1.08,4.48a22.07,22.07,0,0,0-.36,3.95,21.46,21.46,0,0,0,.54,4.85,21.93,21.93,0,0,0,1.44,4.3,29.47,29.47,0,0,0,4,7q2.59,3.41,5.65,7.18a56.6,56.6,0,0,0,3.95,4.31q2.52,2.51,5.56,5.74t6.37,7.27q3.33,4,6.38,8.52a88.86,88.86,0,0,1,8.34,16.24,52.21,52.21,0,0,1,3.5,19.29,55.19,55.19,0,0,1-1.62,13.1A43.82,43.82,0,0,1,243.31,154a40.1,40.1,0,0,1-8.53,10.41A44.54,44.54,0,0,1,222,172.09a40.17,40.17,0,0,1-16.95,2.7A48.45,48.45,0,0,1,191.27,172a36.45,36.45,0,0,1-13.82-8.53,32.21,32.21,0,0,1-6.64-9.78,31.82,31.82,0,0,1-2.51-13,50.4,50.4,0,0,1,2.92-16.15l10,3.41a35.49,35.49,0,0,0-1.7,6.64,39.56,39.56,0,0,0-.45,5.75,21.15,21.15,0,0,0,1.79,9.15,22.43,22.43,0,0,0,4.29,6.28,27,27,0,0,0,10,6.1A36.78,36.78,0,0,0,205.55,164a29.34,29.34,0,0,0,12.79-2,32.61,32.61,0,0,0,9.57-5.93,32,32,0,0,0,9.48-15.43,44.48,44.48,0,0,0-1.62-26.19,71.85,71.85,0,0,0-7.18-13.82,89.09,89.09,0,0,0-11.66-14.45q-6.1-6-9.51-10.13v80.74Z" transform="translate(-33.12 -33.93)"/><path class="cls-4" d="M258.92,110.19a20,20,0,0,1,1.52-7.9,19.1,19.1,0,0,1,4-6.1A17.65,17.65,0,0,1,277,91a17.3,17.3,0,0,1,13.64,5.92,19.94,19.94,0,0,1,3.68,6.91,28.29,28.29,0,0,1,1.16,8.16v12.21a5.22,5.22,0,0,1-5.38,5.38H269.68v6.1a14,14,0,0,0,1.89,7.18,6.44,6.44,0,0,0,6,3.23h36.07v10.76H277.58a17.22,17.22,0,0,1-8-1.79,17.41,17.41,0,0,1-5.83-4.76,22.07,22.07,0,0,1-3.59-6.73,24.13,24.13,0,0,1-1.25-7.71Zm2.69-35.53,8.25-8.43,8.08,8.25L286,66.23l8.43,8.43L286,82.91,277.94,75l-8.08,7.89Zm23.15,44.14V112a14.18,14.18,0,0,0-1.71-7.35c-1.14-1.92-3.14-2.87-6-2.87a7.72,7.72,0,0,0-4.93,2q-2.43,2-2.43,6.46v8.61Z" transform="translate(-33.12 -33.93)"/><path class="cls-4" d="M308.44,146.08H328a13,13,0,0,0,3.32-.45,10.07,10.07,0,0,0,3.14-1.44,8.12,8.12,0,0,0,2.42-2.69,8.66,8.66,0,0,0,1-4.4q0-4.31-2.51-6.46-2.52-2.5-7.36-2.51H314a5.2,5.2,0,0,1-5.38-5.38v-11.3q0-9,4.93-14.18t13.73-5.2h16.33L340,102.83H327.28q-4.66,0-6.19,3a15.69,15.69,0,0,0-1.7,6.55v5H328q9,0,14.8,5.38t5.83,14.35a18,18,0,0,1-2.33,9h24.4v10.76H303.06Zm1.79,25.48,8.26-8.44,8.07,8.08,8.08-8.08,8.43,8.44-8.43,8.25-8.08-8.07-8.07,8.07Z" transform="translate(-33.12 -33.93)"/><path class="cls-4" d="M359.58,74.66l8.25-8.43,8.43,8.43-8.43,8.25Zm7.71,76.44a19.05,19.05,0,0,1-3.77-6.73,31.62,31.62,0,0,1-1.43-8.52V92.07h10.77v43.6a13.84,13.84,0,0,0,1.88,7.27,6.5,6.5,0,0,0,6,3.14h13.82v10.76H380.75a20.77,20.77,0,0,1-7.45-1.34A14.43,14.43,0,0,1,367.29,151.1Z" transform="translate(-33.12 -33.93)"/><path class="cls-4" d="M526.45,131.72H493.26v34.1l-10.77,5.38V94A32,32,0,0,0,480,81.12a28.72,28.72,0,0,0-6.64-9.6,25.34,25.34,0,0,0-9.69-5.65,26.48,26.48,0,0,0-11.48-1.08,30.38,30.38,0,0,0-18.85,9.42,30.61,30.61,0,0,0-6,9.69,31.9,31.9,0,0,0-2.06,12.65,26.3,26.3,0,0,0,2,9.42,20.69,20.69,0,0,0,4.85,7.09,21.41,21.41,0,0,0,6.91,4.4,21.64,21.64,0,0,0,8,1.52,24.21,24.21,0,0,0,9.15-2l3.95,9.15A33.71,33.71,0,0,1,446.24,129a32.88,32.88,0,0,1-11.75-2.15,29.67,29.67,0,0,1-10.05-6.37,32.6,32.6,0,0,1-7.09-10.14,34.31,34.31,0,0,1-2.87-13.46A42.47,42.47,0,0,1,417.35,80a43.15,43.15,0,0,1,8.17-13.1,39.27,39.27,0,0,1,11.75-8.79A43.86,43.86,0,0,1,450.91,54a36.6,36.6,0,0,1,15.16,1.43,38,38,0,0,1,13.64,7.45,38.52,38.52,0,0,1,9.78,13A41.6,41.6,0,0,1,493.26,94V121h33.19V47.39h10.77V150.2a16.71,16.71,0,0,0,1,6.11,13.27,13.27,0,0,0,2.24,3.94,9,9,0,0,0,6.64,2.69v10.77a20.36,20.36,0,0,1-7.72-1.53,18.66,18.66,0,0,1-6.64-4.57,22.93,22.93,0,0,1-4.57-7.36,27.12,27.12,0,0,1-1.71-10.05Z" transform="translate(-33.12 -33.93)"/><path class="cls-4" d="M549.78,122q0-9.51,4.39-16.06a49.91,49.91,0,0,1,10-11q5.21-4.31,10.77-8.62A30.07,30.07,0,0,0,583,77.53l7.9,5.56a36.62,36.62,0,0,1-5.2,7.27A59.11,59.11,0,0,1,579,96.55h8.43v39.12a14,14,0,0,0,1.89,7.18,6.43,6.43,0,0,0,6,3.23h14v10.76h-14a20.5,20.5,0,0,1-7.18-1.25,14.45,14.45,0,0,1-5.92-4.13q-5.38,5.74-14.18,5.74a17.72,17.72,0,0,1-6.82-1.34,18.72,18.72,0,0,1-10-9.87,20,20,0,0,1-1.52-8Zm26.91-23.32-5.38,4.3a46.59,46.59,0,0,0-7.8,8.7,18,18,0,0,0-3,10.32v16a7.94,7.94,0,0,0,2.42,6.28,7.59,7.59,0,0,0,5.11,2.16q4.67,0,6.55-3a13.42,13.42,0,0,0,2.06-6.72Z" transform="translate(-33.12 -33.93)"/><path class="cls-4" d="M602.89,58.33h10.77v77.16a15,15,0,0,0,1.79,7.27q1.8,3.31,6.1,3.32H636.8v10.76H621.55a17,17,0,0,1-8.07-1.79,18.56,18.56,0,0,1-5.83-4.76,19.3,19.3,0,0,1-3.59-6.82,26.72,26.72,0,0,1-1.17-7.8Z" transform="translate(-33.12 -33.93)"/><path class="cls-4" d="M628.55,122q0-9.51,4.4-16.06a49.15,49.15,0,0,1,9.95-11q5.21-4.31,10.77-8.62a30.07,30.07,0,0,0,8.07-8.79l7.9,5.56a36.22,36.22,0,0,1-5.2,7.27,59.11,59.11,0,0,1-6.64,6.19h8.43v39.12a14.07,14.07,0,0,0,1.88,7.18,6.46,6.46,0,0,0,6,3.23h14v10.76h-14a20.5,20.5,0,0,1-7.18-1.25,14.39,14.39,0,0,1-5.92-4.13q-5.38,5.74-14.18,5.74a17.72,17.72,0,0,1-6.82-1.34,18.72,18.72,0,0,1-10-9.87,20,20,0,0,1-1.52-8Zm26.91-23.32-5.38,4.3a46.59,46.59,0,0,0-7.8,8.7,18,18,0,0,0-3,10.32v16a7.94,7.94,0,0,0,2.43,6.28,7.59,7.59,0,0,0,5.11,2.16c3.11,0,5.3-1,6.55-3a13.42,13.42,0,0,0,2.06-6.72Z" transform="translate(-33.12 -33.93)"/><path class="cls-4" d="M681.66,58.33h10.77v77.16a15,15,0,0,0,1.79,7.27q1.8,3.31,6.1,3.32h15.25v10.76H700.32a17,17,0,0,1-8.07-1.79,18.56,18.56,0,0,1-5.83-4.76,19.3,19.3,0,0,1-3.59-6.82,26.72,26.72,0,0,1-1.17-7.8Z" transform="translate(-33.12 -33.93)"/></g></svg>