<svg id="Layer_1" data-name="Layer 1" xmlns="http://www.w3.org/2000/svg" viewBox="0 0 456.71 344.67"><defs><style>.cls-1,.cls-2{fill:#6f1c11;}.cls-2,.cls-3,.cls-4,.cls-5{fill-rule:evenodd;}.cls-3{fill:#f29b30;}.cls-4{fill:#fff;}.cls-5{fill:#c74427;}</style></defs><title>Desi Halal Meat Market-5</title><path class="cls-1" d="M131.87,209.6a46.48,46.48,0,0,0-4.29-8.32c-1.06-1.54-2.13-3-3.27-4.38s-2.24-2.64-3.3-3.75-2-2.07-2.84-3a26,26,0,0,1-2-2.22c-1-1.27-2-2.5-2.89-3.67a15.37,15.37,0,0,1-2.08-3.6,12,12,0,0,1-.73-2.22,11.83,11.83,0,0,1-.29-2.47,12.94,12.94,0,0,1,.2-2.05c.12-.66.31-1.45.55-2.31l-5.35-1.56a21.12,21.12,0,0,0-.91,6,16,16,0,0,0,.37,3.55,17.65,17.65,0,0,0,1,3.27l.56,1.19v49.14h5.55V191.76A71,71,0,0,0,117,197a45.48,45.48,0,0,1,6,7.42,35.51,35.51,0,0,1,3.69,7.11,22.92,22.92,0,0,1,.85,13.44,17,17,0,0,1-4.88,8,17.22,17.22,0,0,1-4.92,3,14.8,14.8,0,0,1-6.57,1,18,18,0,0,1-5.34-1.11,13.76,13.76,0,0,1-5.14-3.12,11.43,11.43,0,0,1-2.22-3.24,11,11,0,0,1-.91-4.69,24.61,24.61,0,0,1,.22-3,18.88,18.88,0,0,1,.88-3.41l-5.14-1.76A26.06,26.06,0,0,0,92,225a15.9,15.9,0,0,0,1.31,6.7,16.4,16.4,0,0,0,3.4,5,18.82,18.82,0,0,0,7.11,4.37,24.7,24.7,0,0,0,7.07,1.42,20.76,20.76,0,0,0,8.73-1.39,22.88,22.88,0,0,0,6.54-3.95,21,21,0,0,0,4.4-5.34,25.83,25.83,0,0,0,2.3-5.55,29.11,29.11,0,0,0,.83-6.74,26.94,26.94,0,0,0-1.78-9.92" transform="translate(-21.29 -33.7)"/><path class="cls-1" d="M152.48,186.7l-4.15,4.23-4.15-4.23L139.92,191l4.26,4.24,4.15-4.06,4.15,4.06,4.31-4.24Zm-4.35,41a3.31,3.31,0,0,1-3.09-1.67,7.32,7.32,0,0,1-1-3.67v-3.15h10.51a2.72,2.72,0,0,0,2-.77,2.79,2.79,0,0,0,.8-2V210.2a14.27,14.27,0,0,0-.6-4.18,11,11,0,0,0-1.91-3.55,8.83,8.83,0,0,0-7-3,9,9,0,0,0-6.45,2.68,10,10,0,0,0-2.07,3.12,10.5,10.5,0,0,0-.77,4.07v13.18A12.09,12.09,0,0,0,141,229.9a9,9,0,0,0,3,2.44,8.62,8.62,0,0,0,4.09.91h18.53v-5.52Zm-4.07-18.44a4.06,4.06,0,0,1,1.25-3.32,3.94,3.94,0,0,1,2.53-1,3.33,3.33,0,0,1,3.1,1.47,7.22,7.22,0,0,1,.87,3.78v3.53h-7.76v-4.44Z" transform="translate(-21.29 -33.7)"/><path class="cls-1" d="M177.45,236.49l-4.15,4.15-4.15-4.15-4.23,4.35,4.23,4.23,4.15-4.15,4.15,4.15,4.32-4.23Zm6-8.76a9.3,9.3,0,0,0,1.19-4.6,9.62,9.62,0,0,0-3-7.39A10.82,10.82,0,0,0,174,213h-4.43V210.4a8.14,8.14,0,0,1,.88-3.38c.51-1,1.6-1.51,3.19-1.51h6.53l1.85-5.54h-8.38a9.28,9.28,0,0,0-7.05,2.67,10.1,10.1,0,0,0-2.57,7.31v5.79a2.82,2.82,0,0,0,.8,2,2.71,2.71,0,0,0,2,.76H174a5.17,5.17,0,0,1,3.78,1.31,4.15,4.15,0,0,1,1.28,3.33,4.37,4.37,0,0,1-.51,2.24,3.86,3.86,0,0,1-1.22,1.39,5.92,5.92,0,0,1-1.62.74,7.57,7.57,0,0,1-1.71.22H164l-2.76,5.51H196v-5.51Z" transform="translate(-21.29 -33.7)"/><path class="cls-1" d="M214.88,227.73a3.66,3.66,0,0,1-3-1.42,6.46,6.46,0,0,1-1.11-4V209.57a10.87,10.87,0,0,0-.74-3.92,9.92,9.92,0,0,0-2-3.27,9.33,9.33,0,0,0-3-2.22,8.49,8.49,0,0,0-3.78-.82,9.18,9.18,0,0,0-4.06.82V181.8h-5.54v51.43h5.54V209.56a6,6,0,0,1,.91-3.29,3.52,3.52,0,0,1,3.15-1.42,4.21,4.21,0,0,1,2.71,1.16,4.38,4.38,0,0,1,1.33,3.55v13a11.2,11.2,0,0,0,2.78,7.76,8.91,8.91,0,0,0,6.91,2.92h7.18v-5.51h-7.18Z" transform="translate(-21.29 -33.7)"/><path class="cls-1" d="M227.78,227.74a3.31,3.31,0,0,1-3.07-1.62,7.09,7.09,0,0,1-1-3.72V200H218.2v22.5a16.24,16.24,0,0,0,.74,4.38,4.49,4.49,0,0,0,.35.88,9.69,9.69,0,0,0,1.59,2.58,7.14,7.14,0,0,0,1.2,1.14,6.3,6.3,0,0,0,1.91,1.1,10.51,10.51,0,0,0,3.81.68h11.71l2.78-5.51H227.78Zm-6.62-41L216.9,191l4.26,4.24,4.32-4.24Z" transform="translate(-21.29 -33.7)"/><path class="cls-1" d="M317.87,235a6.21,6.21,0,0,1-1.14-2,8.66,8.66,0,0,1-.51-3.15V177h-5.54v37.83H293.63V201a21.78,21.78,0,0,0-1.93-9.33,20.21,20.21,0,0,0-5-6.67,19.54,19.54,0,0,0-7-3.84,19.25,19.25,0,0,0-7.79-.74,22.55,22.55,0,0,0-7,2.13,20.48,20.48,0,0,0-6.06,4.52,21.46,21.46,0,0,0-5.65,15.4,17.31,17.31,0,0,0,1.45,6.91,16.44,16.44,0,0,0,3.67,5.2,15,15,0,0,0,5.14,3.29,16.57,16.57,0,0,0,6.06,1.11,17.73,17.73,0,0,0,7.1-1.47l-2-4.72a12.27,12.27,0,0,1-4.69,1,10.87,10.87,0,0,1-4.12-.8,11.41,11.41,0,0,1-3.55-2.24,10.85,10.85,0,0,1-2.47-3.64,13.2,13.2,0,0,1-1-4.86,16.21,16.21,0,0,1,1.05-6.47,16.46,16.46,0,0,1,3.09-5,15.48,15.48,0,0,1,4.49-3.3,15.08,15.08,0,0,1,5.2-1.53,13.6,13.6,0,0,1,5.91.57,12.83,12.83,0,0,1,5,2.89,15.29,15.29,0,0,1,3.42,4.92A16.64,16.64,0,0,1,288.1,201v39.64l5.54-2.76V220.35H310.7v9.5a13.77,13.77,0,0,0,.87,5.16,11.44,11.44,0,0,0,2.36,3.78,9.38,9.38,0,0,0,3.42,2.36,10.6,10.6,0,0,0,3.95.77v-5.51a4.66,4.66,0,0,1-3.43-1.4" transform="translate(-21.29 -33.7)"/><path class="cls-1" d="M346.08,227.73a3.31,3.31,0,0,1-3.09-1.67,7.42,7.42,0,0,1-1-3.67V202.27H337.7a30.21,30.21,0,0,0,3.41-3.18,19,19,0,0,0,2.68-3.72l-4.07-2.87a15.07,15.07,0,0,1-4.15,4.51q-2.85,2.22-5.54,4.43a25.14,25.14,0,0,0-5.11,5.69,14.41,14.41,0,0,0-2.24,8.25v8.21a10.29,10.29,0,0,0,.76,4.09,10.06,10.06,0,0,0,2.13,3.1,10.57,10.57,0,0,0,3,2,9.1,9.1,0,0,0,3.53.68,9.52,9.52,0,0,0,7.27-2.95,7.31,7.31,0,0,0,3,2.13,10.68,10.68,0,0,0,3.69.63h7.19v-5.52h-7.19Zm-9.57-4.8a7.24,7.24,0,0,1-1.08,3.47,3.7,3.7,0,0,1-3.35,1.51,4,4,0,0,1-2.65-1.11,4.07,4.07,0,0,1-1.22-3.21v-8.21a9.31,9.31,0,0,1,1.51-5.31,25.57,25.57,0,0,1,4-4.46l2.79-2.22v19.54Z" transform="translate(-21.29 -33.7)"/><path class="cls-1" d="M359.55,227.73A3.29,3.29,0,0,1,356.4,226a8,8,0,0,1-.91-3.74V182.63H350v39.76a13.93,13.93,0,0,0,.6,4,10.14,10.14,0,0,0,.51,1.33,9.59,9.59,0,0,0,1.33,2.16,8,8,0,0,0,.89.94,9.31,9.31,0,0,0,2.13,1.51,8.64,8.64,0,0,0,4.14.91h7.82v-5.51h-7.82Z" transform="translate(-21.29 -33.7)"/><path class="cls-1" d="M380.39,186.7,376.18,191l0,0,4.24,4.24L384.7,191Zm-4.21,4.3-4.3-4.29-4.23,4.34,4.23,4.24,4.3-4.21.05,0Zm10.37,36.74a3.27,3.27,0,0,1-3.07-1.68,7.08,7.08,0,0,1-1-3.66V201.28l-5.43-3.15a15,15,0,0,1-2.61,2,36.9,36.9,0,0,0-3.93,2.9c-.74.62-1.54,1.31-2.41,2.07a19.73,19.73,0,0,0-2.39,2.59,13.11,13.11,0,0,0-1.84,3.32,12,12,0,0,0-.74,4.38v8.21a9.71,9.71,0,0,0,.8,4.1l0,0a9.37,9.37,0,0,0,2.07,3,12.85,12.85,0,0,0,1.33,1.08,12.32,12.32,0,0,0,1.68.91,9.19,9.19,0,0,0,3.49.67,9.46,9.46,0,0,0,7.27-3,7.43,7.43,0,0,0,3,2.13,10.7,10.7,0,0,0,3.7.63h7.18v-5.51h-7.17ZM377,223.31a6.93,6.93,0,0,1-1.19,3.23,3.79,3.79,0,0,1-3.24,1.37,3.89,3.89,0,0,1-2.62-1.11,4,4,0,0,1-1.25-3.22v-8.21a6.51,6.51,0,0,1,.69-2.9,10.34,10.34,0,0,1,1.9-2.76,22.43,22.43,0,0,1,2.67-2.56,34.64,34.64,0,0,1,3-2.21v18.37Z" transform="translate(-21.29 -33.7)"/><path class="cls-1" d="M400,227.73A3.21,3.21,0,0,1,396.9,226a7.58,7.58,0,0,1-.94-3.74V182.63h-5.55v39.76a13,13,0,0,0,.63,4,11.79,11.79,0,0,0,.51,1.33,9.51,9.51,0,0,0,1.31,2.16,8,8,0,0,0,.89.94,10,10,0,0,0,2.13,1.51,8.72,8.72,0,0,0,4.14.91h12.45l2.76-5.51H400Z" transform="translate(-21.29 -33.7)"/><path class="cls-1" d="M110.25,332.77a8.92,8.92,0,0,1-1.46-2.42,9.89,9.89,0,0,1-.62-3.81V281a12.56,12.56,0,0,0-3.87-9.15,14.36,14.36,0,0,0-4.09-2.64,12,12,0,0,0-4.71-1,15.19,15.19,0,0,0-4.91.85,9.54,9.54,0,0,0-4.1,2.73l-.12.11a11.52,11.52,0,0,0-4.14-2.61,13.2,13.2,0,0,0-4.84-1,15.89,15.89,0,0,0-4.14.57,10.47,10.47,0,0,0-3.7,1.85,22.27,22.27,0,0,0-3-4.6,31.08,31.08,0,0,0-3.8-3.81,26.89,26.89,0,0,0-8.64-4.78,21.57,21.57,0,0,0-9.44-1,27.91,27.91,0,0,0-8.75,2.67,25.24,25.24,0,0,0-7.56,5.62,27.48,27.48,0,0,0-5.24,8.42,27.1,27.1,0,0,0-1.85,10.8,22.13,22.13,0,0,0,1.85,8.72,20.36,20.36,0,0,0,4.61,6.65,19.47,19.47,0,0,0,6.62,4.21,21.87,21.87,0,0,0,7.78,1.41,20.12,20.12,0,0,0,8.64-1.85L48,296.9a15.3,15.3,0,0,1-5.85,1.28,13.86,13.86,0,0,1-9.58-3.8,12.87,12.87,0,0,1-3.09-4.55,16.72,16.72,0,0,1-1.28-6.05,20.3,20.3,0,0,1,1.34-8.13A18.78,18.78,0,0,1,39,265.3a18.84,18.84,0,0,1,6.5-1.9,16.45,16.45,0,0,1,6.46.68,18.61,18.61,0,0,1,6.45,3.47,17,17,0,0,1,4.77,5.74A16.61,16.61,0,0,1,65,281v43.79h6.91V281.25A7.2,7.2,0,0,1,73.25,277a4.8,4.8,0,0,1,4.14-1.9,5.74,5.74,0,0,1,4,1.62,5.35,5.35,0,0,1,1.73,4.14v43.91h6.91V281.25A7.23,7.23,0,0,1,91.46,277a4.57,4.57,0,0,1,4-2,5.65,5.65,0,0,1,4.15,1.62,5.82,5.82,0,0,1,1.59,4.25v45.62a17.11,17.11,0,0,0,1.11,6.45,16.65,16.65,0,0,0,1,2c2.65-.45,5.46-.85,8.47-1.11a5.25,5.25,0,0,1-1.53-1.08" transform="translate(-21.29 -33.7)"/><path class="cls-1" d="M133.49,266.61l-5.17,5.31-5.18-5.31L117.83,272l5.31,5.28,5.18-5.05,5.17,5.05,5.43-5.28Zm-5.4,51.27a4.13,4.13,0,0,1-3.87-2.07,9,9,0,0,1-1.2-4.61v-3.92h13.13a3.3,3.3,0,0,0,3.44-3.44V296a17.77,17.77,0,0,0-.74-5.25,12.84,12.84,0,0,0-2.36-4.44,11.13,11.13,0,0,0-8.75-3.78,11.29,11.29,0,0,0-4.38.86,10.93,10.93,0,0,0-3.7,2.47,12.18,12.18,0,0,0-2.59,3.92,12.9,12.9,0,0,0-1,5.06v16.48a15.61,15.61,0,0,0,.83,5,14.45,14.45,0,0,0,2.3,4.32,11.42,11.42,0,0,0,3.75,3,11,11,0,0,0,5.11,1.16h23.16v-6.93ZM123,294.83a4.8,4.8,0,0,1,4.71-5.4,4.11,4.11,0,0,1,3.86,1.85,9.26,9.26,0,0,1,1.09,4.72v4.38H123v-5.55Z" transform="translate(-21.29 -33.7)"/><path class="cls-1" d="M177.28,317.88a4.19,4.19,0,0,1-3.87-2.07,9,9,0,0,1-1.19-4.61V286.08h-5.43a35.75,35.75,0,0,0,4.27-4,23.35,23.35,0,0,0,3.35-4.66l-5.09-3.55a19.43,19.43,0,0,1-5.17,5.63c-2.38,1.85-4.69,3.69-6.9,5.54a31.44,31.44,0,0,0-6.4,7.07A18,18,0,0,0,148,302.45v10.26a12.46,12.46,0,0,0,1,5.11l0,.06a11.53,11.53,0,0,0,2.22,3.38l.39.43a11.64,11.64,0,0,0,3.75,2.47,11.34,11.34,0,0,0,4.38.88,11.93,11.93,0,0,0,9.09-3.69,9.22,9.22,0,0,0,3.82,2.64,13.07,13.07,0,0,0,4.6.82h9v-6.93Zm-12-6a8.47,8.47,0,0,1-1.3,4.32,4.63,4.63,0,0,1-4.21,1.9,4.94,4.94,0,0,1-3.29-1.36,5.2,5.2,0,0,1-1.53-4V302.45a11.66,11.66,0,0,1,1.87-6.62,30.74,30.74,0,0,1,5-5.6l3.44-2.75v24.4Z" transform="translate(-21.29 -33.7)"/><path class="cls-1" d="M194.11,317.88a4.1,4.1,0,0,1-3.93-2.13,9.67,9.67,0,0,1-1.13-4.66v-21h7l2.31-6.91H189V261.56h-6.93v21.65h-4.49v6.91h4.49V311.2a16.41,16.41,0,0,0,.77,5,10.78,10.78,0,0,0,.62,1.68,10.91,10.91,0,0,0,1.68,2.73,9.53,9.53,0,0,0,1.07,1.13,11.68,11.68,0,0,0,2.64,1.91,11.26,11.26,0,0,0,5.2,1.16h13.59l3.46-6.93Z" transform="translate(-21.29 -33.7)"/><path class="cls-1" d="M312.35,330.35a10.47,10.47,0,0,1-.62-3.8V281a12.64,12.64,0,0,0-1-5.11,12.92,12.92,0,0,0-2.85-4,14.36,14.36,0,0,0-4.09-2.64,11.88,11.88,0,0,0-4.71-1,15.12,15.12,0,0,0-4.89.85,9.56,9.56,0,0,0-4.09,2.73l-.11.12a12,12,0,0,0-4.15-2.62,13.3,13.3,0,0,0-4.83-1,15.85,15.85,0,0,0-4.15.57,10.1,10.1,0,0,0-3.69,1.85,25.7,25.7,0,0,0-3-4.61,29.11,29.11,0,0,0-3.81-3.8,26.68,26.68,0,0,0-8.64-4.78,21.57,21.57,0,0,0-9.45-1,28,28,0,0,0-8.76,2.67,25,25,0,0,0-7.53,5.62,27,27,0,0,0-7.11,19.21,23.29,23.29,0,0,0,1.85,8.73,21.31,21.31,0,0,0,4.61,6.65,19.84,19.84,0,0,0,6.61,4.2,22.1,22.1,0,0,0,7.79,1.42,20.2,20.2,0,0,0,8.64-1.85l-2.76-6.34a15.41,15.41,0,0,1-5.89,1.28,13.81,13.81,0,0,1-9.55-3.81,13,13,0,0,1-3.12-4.54,16.12,16.12,0,0,1-1.25-6.06,20.28,20.28,0,0,1,1.3-8.12,19.66,19.66,0,0,1,3.86-6.22,19.15,19.15,0,0,1,5.6-4.13,18.77,18.77,0,0,1,6.51-1.9,16.2,16.2,0,0,1,6.45.68,18.74,18.74,0,0,1,6.46,3.47,17,17,0,0,1,4.77,5.74,16.52,16.52,0,0,1,1.79,7.73v43.8h6.91V281.26a6.9,6.9,0,0,1,1.39-4.2,4.76,4.76,0,0,1,4.15-1.91,5.76,5.76,0,0,1,4,1.62,5.39,5.39,0,0,1,1.71,4.15v43.91h6.93V281.26a7.37,7.37,0,0,1,1.37-4.2,4.62,4.62,0,0,1,4-2,5.58,5.58,0,0,1,4.15,1.62,5.78,5.78,0,0,1,1.62,4.26v45.61a19,19,0,0,0,.6,5c2.67,0,5.23.14,7.64.25a12.63,12.63,0,0,1-.71-1.38" transform="translate(-21.29 -33.7)"/><path class="cls-1" d="M349,317.88a4.1,4.1,0,0,1-3.86-2.07,8.78,8.78,0,0,1-1.22-4.61V286.08h-5.4a34.91,34.91,0,0,0,4.26-4,22.49,22.49,0,0,0,3.33-4.66L341,273.89a19.44,19.44,0,0,1-5.2,5.63c-2.36,1.85-4.65,3.69-6.9,5.54a31.44,31.44,0,0,0-6.4,7.07,18.26,18.26,0,0,0-2.82,10.32v10.26a12.62,12.62,0,0,0,1,5.11,12.08,12.08,0,0,0,6.4,6.34,11.41,11.41,0,0,0,4.37.88,12,12,0,0,0,9.13-3.69,9.25,9.25,0,0,0,3.81,2.64,13.07,13.07,0,0,0,4.6.82h9v-6.93Zm-12-6a8.59,8.59,0,0,1-1.33,4.32c-.8,1.27-2.19,1.9-4.21,1.9a4.91,4.91,0,0,1-3.27-1.36,5.11,5.11,0,0,1-1.56-4V302.45a11.38,11.38,0,0,1,1.91-6.62,30.14,30.14,0,0,1,5-5.6l3.47-2.75v24.4Z" transform="translate(-21.29 -33.7)"/><path class="cls-1" d="M373.93,283.21h-8.15a10.7,10.7,0,0,0-8.84,4,14.9,14.9,0,0,0-3.15,9.6v28h6.9V296.9a13.12,13.12,0,0,1,.24-2.36,6.71,6.71,0,0,1,.82-2.19,4.56,4.56,0,0,1,1.53-1.62,4.67,4.67,0,0,1,2.5-.62h10.46Z" transform="translate(-21.29 -33.7)"/><path class="cls-1" d="M407.81,317.88v-6.8a15.61,15.61,0,0,0-2.24-8.07,10.09,10.09,0,0,0-6.74-4.83l11.06-15h-7.71l-12.67,15.55V260.5h-6.93v64.3h6.93V310.4a6,6,0,0,1,1.65-4.15,5.41,5.41,0,0,1,4.09-1.85,5.11,5.11,0,0,1,4.09,1.79,6.55,6.55,0,0,1,1.57,4.54v10.71a3.05,3.05,0,0,0,1.11,2.37,3.72,3.72,0,0,0,2.58,1h16.6v-6.93H407.81Z" transform="translate(-21.29 -33.7)"/><path class="cls-1" d="M434,266.61l-5.2,5.31-5.17-5.31L418.29,272l5.32,5.28,5.17-5.05,5.2,5.05,5.4-5.28Zm-5.43,51.27a4.17,4.17,0,0,1-3.87-2.07,9,9,0,0,1-1.19-4.61v-3.92h13.12a3.29,3.29,0,0,0,3.44-3.44V296a17.77,17.77,0,0,0-.74-5.25,12.35,12.35,0,0,0-2.36-4.44,11.07,11.07,0,0,0-8.75-3.78,11.33,11.33,0,0,0-4.38.86,11,11,0,0,0-3.69,2.47,12,12,0,0,0-2.58,3.92,12.73,12.73,0,0,0-1,5.06v16.48a15.88,15.88,0,0,0,.82,5c.2.54.4,1.08.65,1.6a13.87,13.87,0,0,0,1.65,2.73,10.4,10.4,0,0,0,1.51,1.53,11.14,11.14,0,0,0,2.24,1.51,11,11,0,0,0,5.12,1.17H451.7V317.9H428.55Zm-5.06-23.05a4.81,4.81,0,0,1,4.72-5.4,4.13,4.13,0,0,1,3.86,1.85,9.26,9.26,0,0,1,1.08,4.72v4.38h-9.66v-5.55Z" transform="translate(-21.29 -33.7)"/><path class="cls-1" d="M460.46,317.88a4.1,4.1,0,0,1-3.92-2.13,9.56,9.56,0,0,1-1.13-4.66v-21h7l2.31-6.91h-9.32V261.56h-6.94v21.65H444v6.91h4.49V311.2a16.71,16.71,0,0,0,.76,5,9.88,9.88,0,0,0,.63,1.68,10.91,10.91,0,0,0,1.68,2.73l.16.2a11.85,11.85,0,0,0,3.59,2.84,10.89,10.89,0,0,0,5.16,1.17H474l3.47-6.93H460.46Z" transform="translate(-21.29 -33.7)"/><path class="cls-2" d="M477.38,317.88c-1.31,2.58-3.84,4.89-7.33,6.93-24.47,14.29-97.48,16.17-152,15.86-1.46,0-2.88,0-4.3,0-24-.16-43.87-.71-53.65-.71-53.59,0-198.44-11.11-228.45,38.45,41.46-18.92,130.63-26.08,228.45-22.87,63.09,2,214.53,2.82,217.88-37.63h-.62Z" transform="translate(-21.29 -33.7)"/><path class="cls-3" d="M250,110.38l1.08.12V63h0V58h0V57a1.08,1.08,0,0,0-1.83-.75h0a1.05,1.05,0,0,0-.3.74v53.52ZM305,151.72c6.23-8.28,12.72-16.09,19-24.35H176.08c6.26,8.26,12.75,16.07,19,24.35L113.84,151l59.55-7.8-66.13-.65L167,135.63l-65.81-.58,66.19-7.68H95.81l37.71-4.16a120.59,120.59,0,0,1,233,0l37.67,4.16H332.64l66.2,7.68-59.11.58,53,6.93-59.42.65,52.84,7.8ZM256,111l6.74.74V63.83q-3.33-.46-6.74-.68Zm11.63,1.29,2.14.23V65.09h0V60h0c0-.71.11-1.42-.29-1.82l-.8-.31a1,1,0,0,0-1.05,1Zm7.06.78,6.74.74V68.48q-3.3-1.2-6.74-2.17Zm11.65,1.28,2.13.23V71.39h0V66h0c0-.87.14-1.88-.31-2.33l-.79-.3a1,1,0,0,0-1,1.05v50Zm7.06.78,6.57.72V77.81q-3.19-2.11-6.57-3.93Zm11.47,1.26,2.13.24V82.91l0,0v-6.2l0,0v-2a1,1,0,0,0-.3-.75h0a1.11,1.11,0,0,0-1.52,0l-.3.75Zm7.06.78,6.57.72v-24c-1.27-1.43-2.57-2.83-3.93-4.18-.86-.86-1.75-1.71-2.64-2.55Zm11.48,1.27,2.1.23V94.59l0,0v-3a1.09,1.09,0,0,0-.18-.6l-.92-.45a1,1,0,0,0-1,1v26.8Zm7.06.77,4.09.45a90.3,90.3,0,0,0-4.09-8.68Zm9.61,1.06.23,0a6.12,6.12,0,0,1,1.8-.58,98,98,0,0,0-11.64-22v3.74a95.27,95.27,0,0,1,8.49,16c.39.94.76,1.89,1.12,2.85m7.75.85A103.31,103.31,0,0,0,309.72,70l-2.35-1.62a103.54,103.54,0,0,0-17.24-9.29,3.71,3.71,0,0,0-.85-.35A102.44,102.44,0,0,0,270.17,53a103.75,103.75,0,0,0-40.27,0,102.22,102.22,0,0,0-19.11,5.78,4.19,4.19,0,0,0-.85.34A103.43,103.43,0,0,0,177,81.23a102.19,102.19,0,0,0-24.78,39.91l-4.77.52a107.63,107.63,0,0,1,205.12,0Zm-188.11-.83.23,0c.36-1,.73-1.91,1.12-2.85a94.89,94.89,0,0,1,8.5-16V97.71a98.68,98.68,0,0,0-11.66,22,5.89,5.89,0,0,1,1.81.57m5.75-.63,4.1-.46V111a89.3,89.3,0,0,0-4.1,8.69m9-1,2.13-.23V100l0,0,0-8.33a1.08,1.08,0,0,0-1.83-.75h0a1.08,1.08,0,0,0-.3.74Zm7.06-.78,6.57-.73v-30c-.9.83-1.78,1.67-2.64,2.54-1.35,1.36-2.67,2.75-3.93,4.18ZM193,116.66l2.13-.24V81.28l0,0V75.24l0,0c0-.5.06-.93-.3-1.29h0a1.06,1.06,0,0,0-1.81.74v42Zm7-.79,6.58-.72V73.87c-2.25,1.22-4.45,2.53-6.58,3.93Zm11.48-1.26,2.13-.23V70.46h0V65.14h0c0-.56.09-1.07-.29-1.44a1.11,1.11,0,0,0-1.53,0,1,1,0,0,0-.31.74Zm7.06-.78,6.74-.74V66.31c-2.28.64-4.54,1.37-6.74,2.17Zm11.64-1.28,2.13-.23V64.65h0v-5h0c0-.61.1-1.72-1.1-1.72a1,1,0,0,0-1,1v53.59Zm7.05-.78L244,111V63.15c-2.27.14-4.51.37-6.74.68Zm25.44-52.91h0a6,6,0,0,1,.41-2.07c-2.38-.31-4.79-.55-7.21-.69l.05,2.11c2.28.14,4.53.35,6.75.65m18.81,4.45h0a6,6,0,0,1,.74-2c-2.48-.86-5-1.63-7.6-2.29v2.16c2.33.6,4.61,1.31,6.86,2.09m18.92,9h0a5.79,5.79,0,0,1,1.16-1.76q-4-2.46-8.23-4.54v2.34c2.42,1.22,4.78,2.55,7.07,4M319.79,88h0l1.56-1.41-9.42-8.72v2.73ZM237.3,58.86h0c2.23-.3,4.48-.51,6.74-.66l.07-2.11q-3.65.22-7.21.69a5.83,5.83,0,0,1,.4,2.08m-18.79,4.45h0q3.38-1.17,6.84-2.09V59.06q-3.87,1-7.6,2.29a6.3,6.3,0,0,1,.76,2m-18.93,9h0c2.3-1.42,4.65-2.74,7.07-4V66q-4.25,2.07-8.23,4.54a6.11,6.11,0,0,1,1.16,1.76M180.26,88h0l7.85-7.39V77.86l-9.42,8.72Z" transform="translate(-21.29 -33.7)"/><path class="cls-4" d="M191,95.43c8.94-9.31,32.66-9.69,44.29-9.28,2.44.09,4.86.22,7.28.41,11.86.88,35,4,45.4,11.25,12.52.38,32.65,2.34,41.74,11.39,4.82,4.79,5.48,9,5.25,15.61-.19,5.68-.72,11.54-1.3,17.2-.22,2.25-.13,5.57-1.39,7.47a8.52,8.52,0,0,1-3.15,2.56c-1.58.92-3.08,1.87-4.57,2.92-13.49,9.53-30.32,10.24-46.21,10.48-4.85.07-9.74.12-14.57.46-2.59.18-6.94.52-9.32,1.56a86.11,86.11,0,0,1-20.78,6.16c-16.78,2.74-38.53,4.14-53-6.52-12.61-9.28-15.82-24.79-15.52-39.62,0-1.62-.07-3.24,0-4.86.41-13.78,14.33-22.54,25.86-27.19" transform="translate(-21.29 -33.7)"/><path class="cls-3" d="M189.71,93.54c4.93-4.85,13.36-7.37,22.09-8.6a140.24,140.24,0,0,1,23.53-1l3.69.17c1.31.07,2.53.15,3.68.23h0a181.55,181.55,0,0,1,28.17,4.32c6.86,1.7,13.29,4,17.78,7a128.92,128.92,0,0,1,21.89,2.46c8.1,1.75,15.8,4.68,20.69,9.54a18.62,18.62,0,0,1,5.08,8.1,28.2,28.2,0,0,1,.83,9.16q-.17,4.47-.52,8.71c-.21,2.71-.5,5.66-.79,8.64,0,.37-.07.91-.11,1.47-.16,2.32-.33,5-1.65,7h0a10.22,10.22,0,0,1-3.85,3.23l0,0c-.72.42-1.46.86-2.24,1.37h0c-.67.42-1.39.91-2.16,1.46-7.05,5-14.93,7.65-23.1,9.1-8,1.42-16.3,1.66-24.37,1.78l-1.11,0c-4.4.06-8.83.13-13.33.44-1.27.09-3,.21-4.58.44a15.91,15.91,0,0,0-4,1,87.65,87.65,0,0,1-21.32,6.3,123.37,123.37,0,0,1-27.86,1.8c-9.72-.66-19.18-3.1-26.79-8.71A37.89,37.89,0,0,1,166,150.07a66.56,66.56,0,0,1-3-22.65c0-.72,0-1.46,0-2.21s0-1.78,0-2.66c.2-6.59,3.15-12.1,7.47-16.62,5.29-5.58,12.68-9.65,19.34-12.39m22.69-4.2c-8.07,1.15-15.76,3.39-19.83,7.63l-.33.34-.44.19c-6.3,2.53-13.32,6.32-18.24,11.5-3.6,3.79-6.07,8.33-6.24,13.68,0,.82,0,1.65,0,2.48s0,1.56,0,2.36a62.45,62.45,0,0,0,2.8,21.13A33.53,33.53,0,0,0,182,165.31c6.84,5,15.49,7.24,24.45,7.85,9.15.63,18.61-.39,26.85-1.74a85.33,85.33,0,0,0,10.36-2.36,83.87,83.87,0,0,0,9.89-3.63,20.19,20.19,0,0,1,5.16-1.28c1.8-.25,3.58-.38,4.9-.48,4.43-.31,9-.37,13.58-.44h1.12c7.83-.12,15.89-.35,23.65-1.73,7.58-1.35,14.86-3.81,21.3-8.35.72-.51,1.49-1,2.34-1.57h0c.74-.47,1.54-.94,2.4-1.45h0a7,7,0,0,0,2.38-1.86h0c.66-1,.79-3.06.91-4.83,0-.53.07-1,.12-1.62.27-2.69.55-5.51.78-8.55s.42-5.8.51-8.51A24.47,24.47,0,0,0,332,117a14.42,14.42,0,0,0-4-6.2c-4.19-4.17-11.11-6.75-18.48-8.33A124.43,124.43,0,0,0,287.86,100l-.68,0-.53-.37c-4-2.83-10.18-5-16.84-6.66a175.36,175.36,0,0,0-27.44-4.2c-1.28-.09-2.47-.17-3.6-.23s-2.46-.13-3.59-.17a134.81,134.81,0,0,0-22.78,1" transform="translate(-21.29 -33.7)"/><path class="cls-4" d="M325.68,141.05c-.78,7.76.7,4.21-7.18,9.77-12.21,8.62-28.08,9.07-41.78,9.28-9.67.14-19.61.29-24,2.21a77.48,77.48,0,0,1-18.82,5.57c-32.28,5.27-61.63,1-60.8-40.15,0-1.51,0-3.12,0-4.57.34-11.31,12.7-18.86,23-22.89,5.46-6.58,22.14-8.87,39.74-8.24,19.93.71,41.34,5,48.78,11,20.75.51,33,4.57,38.25,9.8,3.45,3.43,4.15,6.17,3.95,12.18-.16,4.63-.85,12.51-1.21,16" transform="translate(-21.29 -33.7)"/><path class="cls-5" d="M179.08,129.49a22.48,22.48,0,0,0,2.87,3.39,32.39,32.39,0,0,0,2.52,2.18,41.1,41.1,0,0,0,5.28,3.42,64.57,64.57,0,0,0,24,7.1,76.58,76.58,0,0,0,25.08-1.49,74.11,74.11,0,0,0,13.33-4.41c5-2.2,15.27-2.35,25.29-2.5,12.65-.19,26-.36,37.79-7.32,5.71-3.37,10.32-8.34,5.12-13.51-7.44-7.39-26.51-8.75-37.31-9-8.92-7.81-35.17-10.53-47.76-11-8.58-.31-31.41-.88-37.29,7.56-5.71,2.18-11.08,4.16-15.41,8.7-4.08,4.27-7.41,11-3.5,16.82m56,24.74a4.65,4.65,0,0,0-3.14,2.09c-.79,1.15-.67,2.09.26,2.09a4.69,4.69,0,0,0,3.14-2.09c.8-1.15.68-2.09-.26-2.09m26.68-33.53c2,.16,1.57.71-1.24,1.65-5.12,1.71-9.37-2.23-1.88-3.09,4.57-.51,5.6,0,3.12,1.44m-82.36,15.74c7.94,7.74,20.88,12.15,33.34,13.5A79.33,79.33,0,0,0,253,143.77c4.35-1.92,14.29-2.06,24-2.21,13.29-.2,27.16-.52,39.53-7.82a25.83,25.83,0,0,0,6.74-5.53c-1,15,1.91,13.2-6.19,18.92-11.4,8.05-27,8.39-39.75,8.57-10,.16-20.31.31-25.29,2.51a74,74,0,0,1-18,5.32c-21.95,3.59-58.75.67-58.2-31.41h0q2,16.38,14.23,22.31c-6.43-3.92-10-10-10.66-18m142-4.39c0,5.57-.07,8.36-.07,8.36q-4.39,6.75-18.16,10.23,11.79-4.69,15.13-16.58l3.1-2M233.44,151q16.53-3.52,22.48-6.66L253.64,155q-18.37,9.18-36.55,7.9,16.53-4.57,16.35-11.93m-6.77-51.5c21.82-1.53,56.37,3.42,40.76,14.09,1.19-2-.42-4.33-4.81-6.9q7.32,4.9,0,9.93a17.5,17.5,0,0,1-1.86.28,3.88,3.88,0,0,0,.68-.51,1.87,1.87,0,0,0,.65-1.49,2.18,2.18,0,0,0-.86-1.46c-1.08-1-3.23-1.77-6.39-2.1a3.36,3.36,0,0,0,1-.89,1,1,0,0,0-.09-1.34h-.35l0,.32a.63.63,0,0,1,.06.83,3.87,3.87,0,0,1-1.3,1c-.32,0-.65,0-1-.06a11.37,11.37,0,0,1-3.49-.58c-1.58-.62-.51-3.54-1.71-1.15a.89.89,0,0,0,.12,1,2.67,2.67,0,0,0,1.14.74,11.91,11.91,0,0,0,3.81.65c3.89.16,6.45,1,7.61,2a1.85,1.85,0,0,1,.68,1.12,1.31,1.31,0,0,1-.46,1,4.66,4.66,0,0,1-1.84,1,43.74,43.74,0,0,1-8.17-.75c-8-1.42-17.74-4-34.24-10.22-13.09-5,1.46-5.9,10.12-6.52m38.81,15.93a5.45,5.45,0,0,1-1.47.8,12.31,12.31,0,0,0,1.47-.8M197.24,130.8c19.68-5.19,36.79-3.4,47.23-4l-31.2,7.87q24.45-5.2,36-7.72l.29.29a1.08,1.08,0,0,1,.19,1,2.49,2.49,0,0,1-1,1.11c-1.42,1-4.19,1.88-8.12,2a13.2,13.2,0,0,0-4,.65,3.79,3.79,0,0,0-1.33.74c-.6.57-.36,1.75-.25,1.46a4.67,4.67,0,0,1,.74-1.06,2.91,2.91,0,0,1,1.14-.57,12.85,12.85,0,0,1,3.64-.58l1-.06a2.5,2.5,0,0,1,1,1,.72.72,0,0,1-.28.83l0,.32h.35a1.15,1.15,0,0,0,.43-1.35,2.26,2.26,0,0,0-.73-.89,14.91,14.91,0,0,0,6.93-2.09,3.23,3.23,0,0,0,1.23-1.46,1.53,1.53,0,0,0-.26-1.5l-.11-.12,5.51-1.22c-.3,2.94-8.89,11.75-16.09,15.61-8.33,1.7-13.3,3.42-23.53,2.29-16.55-1.82-35.39-8.21-18.84-12.58M277,115.5c19.26-8.06,44-.84,31.75,11q-11.92,1.45-30.09-3.26c-3.43-.88-7.56-1.68-9.44-2.53q5.24-.23,26.29-1.51L268.86,119c1.19-.79,4-1.81,8.16-3.53m-16.67,20c-2.07-3.23-.38-9.82,2.54-11.27a1.72,1.72,0,0,0-.44,1.26,2.21,2.21,0,0,0,.86,1.46c1.08,1,3.23,1.77,6.39,2.1a3.23,3.23,0,0,0-1,.89,1,1,0,0,0,.08,1.34h.36l.05-.32a.63.63,0,0,1-.06-.83,3.77,3.77,0,0,1,1.3-1l1,.06a11.39,11.39,0,0,1,3.5.58c1.57.62.51,3.53,1.7,1.14a.89.89,0,0,0-.12-1,2.67,2.67,0,0,0-1.14-.74,11.91,11.91,0,0,0-3.81-.65c-3.89-.15-6.45-1-7.61-2a1.83,1.83,0,0,1-.67-1.12,1.23,1.23,0,0,1,.44-1,3,3,0,0,1,.55-.41c7.39.48,20.41,1.61,41.31,5.79-1.41,6.57-21.46,8.07-45.26,5.75m-59.57-28.38c19.82,3.41,52.94,13.57,49,14l-1.26.16-45.34-5q27.48,4.13,38.16,5.67c-12.35,1.12-32.8,2.69-55.45,4.91-5.48.53-7.15,2.35-5.67-5.43q2.58-13.6,20.52-14.39m124.9,33.94c-.78,7.76.7,4.21-7.18,9.77-12.21,8.62-28.08,9.07-41.78,9.28-9.67.14-19.61.29-24,2.21a77.48,77.48,0,0,1-18.82,5.57c-32.28,5.27-61.63,1-60.8-40.15,0-1.51,0-3.12,0-4.57.34-11.31,12.7-18.86,23-22.89,5.46-6.58,22.13-8.87,39.74-8.24,19.93.7,41.34,5,48.78,11,20.75.5,33,4.56,38.25,9.79,3.45,3.43,4.15,6.17,3.95,12.19-.16,4.63-.85,12.51-1.21,16" transform="translate(-21.29 -33.7)"/></svg>