<?xml version="1.0" encoding="utf-8"?>
<!-- Generator: Adobe Illustrator 23.0.1, SVG Export Plug-In . SVG Version: 6.00 Build 0)  -->
<svg version="1.1" id="Layer_1" xmlns="http://www.w3.org/2000/svg" xmlns:xlink="http://www.w3.org/1999/xlink" x="512px" y="512px"
	 viewBox="0 0 749.92 659.55" style="enable-background:new 0 0 749.92 659.55;" xml:space="preserve">
<style type="text/css">
	.st0{fill:#101010;}
	.st1{fill:#FFFFFF;}
	.st2{clip-path:url(#SVGID_2_);fill:#C74427;}
	.st3{clip-path:url(#SVGID_2_);fill-rule:evenodd;clip-rule:evenodd;fill:#C74427;}
	.st4{clip-path:url(#SVGID_2_);fill-rule:evenodd;clip-rule:evenodd;fill:#FFFFFF;}
	.st5{clip-path:url(#SVGID_2_);fill-rule:evenodd;clip-rule:evenodd;fill:#F29B30;}
	.st6{clip-path:url(#SVGID_2_);fill:#F2F2F2;}
	.st7{clip-path:url(#SVGID_2_);fill-rule:evenodd;clip-rule:evenodd;fill:#F2F2F2;}
	.st8{clip-path:url(#SVGID_2_);fill:#6F1C11;}
	.st9{clip-path:url(#SVGID_2_);fill-rule:evenodd;clip-rule:evenodd;fill:#6F1C11;}
	.st10{clip-path:url(#SVGID_2_);fill:#919191;}
	.st11{fill:#75AA42;}
	.st12{fill-rule:evenodd;clip-rule:evenodd;fill:#75AA42;}
	.st13{fill-rule:evenodd;clip-rule:evenodd;fill:#FFFFFF;}
	.st14{fill-rule:evenodd;clip-rule:evenodd;fill:#F29B30;}
	.st15{fill-rule:evenodd;clip-rule:evenodd;fill:#C74427;}
</style>
<g>
	<g>
		<path class="st11" d="M232.41,348.29c-1.53-3.81-3.31-7.3-5.38-10.44c-1.32-1.93-2.67-3.78-4.1-5.49
			c-1.46-1.75-2.81-3.31-4.13-4.7c-1.28-1.39-2.49-2.6-3.56-3.7c-1.11-1.07-1.93-2-2.57-2.78c-1.28-1.6-2.49-3.14-3.63-4.6
			c-1.1-1.46-2-2.99-2.6-4.52c-0.39-0.85-0.68-1.78-0.92-2.78c-0.21-1-0.36-2.03-0.36-3.1c0-0.85,0.11-1.71,0.25-2.57
			c0.14-0.82,0.39-1.82,0.68-2.89l-6.7-1.96c-0.75,2.53-1.14,5.06-1.14,7.52c0,1.53,0.14,3.03,0.46,4.45
			c0.28,1.42,0.71,2.78,1.25,4.1l0.71,1.5v61.61h6.95v-52.02c1.46,1.78,3.49,3.95,6.13,6.56c2.6,2.57,5.09,5.66,7.48,9.3
			c1.85,2.78,3.42,5.74,4.63,8.91c1.25,3.14,1.85,6.56,1.85,10.15c0,2.32-0.25,4.56-0.79,6.7c-0.39,1.57-1.1,3.21-2.1,4.99
			c-1,1.78-2.32,3.42-4.02,4.99c-1.68,1.53-3.74,2.78-6.17,3.81c-2.42,1-5.17,1.43-8.23,1.25c-2-0.07-4.24-0.53-6.7-1.39
			c-2.46-0.86-4.6-2.14-6.45-3.92c-1.07-1.07-2-2.42-2.78-4.06c-0.75-1.6-1.14-3.56-1.14-5.88c0-1.14,0.11-2.39,0.28-3.71
			c0.18-1.32,0.57-2.74,1.1-4.27l-6.45-2.21c-1.25,3.7-1.89,7.2-1.89,10.4c0,3.17,0.53,5.99,1.64,8.41
			c1.07,2.42,2.49,4.53,4.27,6.31c2.6,2.53,5.59,4.35,8.91,5.49c3.31,1.1,6.27,1.71,8.87,1.78c4.1,0.14,7.73-0.43,10.94-1.75
			c3.21-1.32,5.95-2.96,8.2-4.95c2.28-2.03,4.13-4.24,5.52-6.7c1.35-2.49,2.31-4.81,2.89-6.95c0.67-2.85,1.03-5.67,1.03-8.45
			C234.66,356.28,233.91,352.11,232.41,348.29"/>
		<path class="st11" d="M258.25,319.57l-5.2,5.31l-5.2-5.31l-5.34,5.45l5.34,5.31l5.2-5.09l5.2,5.09l5.41-5.31L258.25,319.57z
			 M252.8,371.02c-1.78,0-3.06-0.71-3.88-2.1c-0.79-1.39-1.21-2.92-1.21-4.6v-3.95h13.18c1,0,1.85-0.32,2.49-0.96
			c0.64-0.68,1-1.5,1-2.49v-7.88c0-1.85-0.25-3.6-0.75-5.24c-0.53-1.67-1.32-3.13-2.39-4.45c-2.24-2.57-5.17-3.81-8.8-3.81
			c-1.53,0-2.99,0.29-4.38,0.86c-1.39,0.57-2.6,1.42-3.71,2.49c-1.07,1.07-1.93,2.39-2.6,3.92c-0.64,1.53-0.96,3.24-0.96,5.1v16.53
			c0,1.67,0.25,3.35,0.79,4.95c0.57,1.64,1.32,3.06,2.31,4.35c1,1.28,2.28,2.28,3.78,3.06c1.5,0.79,3.21,1.14,5.13,1.14h23.23v-6.92
			H252.8z M247.7,347.9c0-1.92,0.53-3.31,1.57-4.17c1.03-0.86,2.1-1.28,3.17-1.28c1.85,0,3.17,0.64,3.88,1.85
			c0.75,1.25,1.1,2.82,1.1,4.74v4.42h-9.73V347.9z"/>
		<path class="st11" d="M289.56,382l-5.2,5.2l-5.2-5.2l-5.31,5.45l5.31,5.31l5.2-5.2l5.2,5.2l5.42-5.31L289.56,382z M297.08,371.02
			c1-1.78,1.5-3.7,1.5-5.77c0-3.88-1.25-6.95-3.74-9.27c-2.53-2.31-5.7-3.45-9.55-3.45h-5.56v-3.24c0.07-1.53,0.46-2.96,1.11-4.24
			c0.64-1.25,2-1.89,3.99-1.89h8.19l2.32-6.95h-10.51c-3.78,0-6.74,1.14-8.84,3.35c-2.14,2.24-3.21,5.27-3.21,9.16v7.27
			c0,1,0.36,1.82,1,2.5c0.64,0.64,1.49,0.96,2.49,0.96h9.02c2.07,0,3.67,0.57,4.74,1.64c1.07,0.93,1.6,2.32,1.6,4.17
			c0,1.14-0.21,2.1-0.64,2.81c-0.39,0.75-0.92,1.32-1.53,1.74c-0.64,0.43-1.32,0.72-2.03,0.93c-0.75,0.18-1.46,0.28-2.14,0.28
			h-12.61l-3.46,6.91h43.58v-6.91H297.08z"/>
		<path class="st11" d="M336.49,371.02c-1.6,0-2.89-0.61-3.81-1.78c-0.93-1.21-1.39-2.89-1.39-5.06v-15.93
			c0-1.71-0.32-3.35-0.93-4.92c-0.61-1.6-1.46-2.96-2.53-4.1c-1.07-1.18-2.35-2.1-3.81-2.78c-1.46-0.71-3.06-1.03-4.74-1.03
			c-1.92,0-3.63,0.32-5.09,1.03v-23.02h-6.95v64.49h6.95v-29.68c0-1.57,0.39-2.92,1.14-4.13c0.79-1.18,2.1-1.78,3.95-1.78
			c1.14,0,2.28,0.5,3.39,1.46c1.14,0.96,1.67,2.42,1.67,4.45v16.28c0,3.92,1.18,7.16,3.49,9.73c2.24,2.46,5.13,3.67,8.66,3.67h9.01
			v-6.91H336.49z"/>
		<path class="st11" d="M352.67,371.03c-1.75,0-3.06-0.68-3.85-2.03c-0.82-1.35-1.21-2.92-1.21-4.67v-28.11h-6.95v28.22
			c0.07,1.99,0.39,3.81,0.93,5.49c0.11,0.39,0.25,0.75,0.43,1.1c0.5,1.21,1.18,2.28,2,3.24c0.46,0.53,0.96,1.03,1.5,1.42
			c0.71,0.61,1.53,1.07,2.39,1.39c1.5,0.57,3.1,0.85,4.78,0.85h14.68l3.49-6.91H352.67z M344.37,319.57l-5.34,5.45l5.34,5.31
			l5.42-5.31L344.37,319.57z"/>
		<path class="st11" d="M465.62,380.15c-0.54-0.61-1.03-1.46-1.42-2.53c-0.43-1.1-0.64-2.39-0.64-3.95v-66.24h-6.95v47.43h-21.38
			V337.5c0-4.38-0.82-8.3-2.42-11.69c-1.64-3.39-3.74-6.17-6.3-8.37c-2.6-2.21-5.52-3.81-8.8-4.81c-3.28-1-6.52-1.28-9.76-0.93
			c-2.99,0.39-5.91,1.28-8.77,2.67c-2.85,1.39-5.38,3.28-7.59,5.67c-2.21,2.39-3.96,5.2-5.27,8.44c-1.28,3.24-1.93,6.84-1.82,10.87
			c0.07,3.24,0.67,6.13,1.82,8.66c1.18,2.57,2.71,4.74,4.6,6.52c1.89,1.82,4.02,3.21,6.45,4.13c2.42,0.93,4.95,1.39,7.59,1.39
			c3.14,0,6.13-0.64,8.91-1.85l-2.57-5.92c-2.07,0.86-4.02,1.28-5.88,1.28c-1.78,0-3.49-0.32-5.17-1c-1.64-0.64-3.14-1.6-4.45-2.81
			c-1.28-1.25-2.35-2.74-3.1-4.56c-0.78-1.82-1.21-3.85-1.28-6.09c-0.07-2.99,0.36-5.7,1.32-8.12c1-2.46,2.28-4.53,3.88-6.27
			c1.64-1.71,3.49-3.1,5.63-4.13c2.1-1.07,4.27-1.67,6.52-1.92c2.53-0.32,4.99-0.07,7.41,0.71c2.39,0.75,4.45,1.96,6.24,3.63
			c1.75,1.64,3.17,3.71,4.28,6.16c1.07,2.49,1.6,5.24,1.6,8.34v49.71l6.95-3.46v-21.98h21.38v11.9c0,2.49,0.36,4.63,1.1,6.48
			c0.71,1.85,1.71,3.42,2.96,4.74c1.21,1.32,2.64,2.28,4.28,2.96c1.6,0.64,3.28,0.96,4.95,0.96v-6.91
			C468.22,381.89,466.79,381.32,465.62,380.15"/>
		<path class="st11" d="M501,371.02c-1.78,0-3.06-0.71-3.88-2.1c-0.78-1.39-1.21-2.92-1.21-4.6V339.1h-5.42
			c1.53-1.21,2.96-2.57,4.28-3.99c1.28-1.42,2.42-2.96,3.35-4.67l-5.1-3.6c-1.07,1.96-2.81,3.81-5.2,5.66
			c-2.39,1.85-4.7,3.71-6.95,5.56c-2.39,1.93-4.53,4.31-6.41,7.13c-1.89,2.82-2.81,6.24-2.81,10.34v10.3c0,1.93,0.32,3.63,0.96,5.13
			c0.68,1.5,1.57,2.81,2.67,3.88c1.11,1.07,2.39,1.89,3.74,2.5c1.39,0.57,2.85,0.85,4.42,0.85c3.78,0,6.8-1.24,9.12-3.7
			c1.07,1.24,2.35,2.14,3.81,2.67c1.46,0.54,3.03,0.79,4.63,0.79h9.01v-6.92H501z M488.99,365c-0.11,1.64-0.53,3.06-1.35,4.35
			c-0.82,1.25-2.21,1.89-4.2,1.89c-1.18,0-2.25-0.46-3.32-1.39c-1.03-0.92-1.53-2.24-1.53-4.02v-10.3c0-2.53,0.61-4.74,1.89-6.66
			c1.28-1.85,2.96-3.74,5.02-5.59l3.49-2.78V365z"/>
		<path class="st11" d="M517.89,371.02c-1.85,0-3.17-0.71-3.95-2.14c-0.75-1.43-1.14-2.99-1.14-4.7v-49.71h-6.95v49.85
			c0,1.68,0.25,3.35,0.75,5.03c0.18,0.57,0.39,1.14,0.64,1.67c0.43,0.96,1,1.89,1.67,2.71c0.36,0.43,0.71,0.82,1.11,1.18
			c0.78,0.75,1.68,1.36,2.67,1.89c1.46,0.78,3.17,1.14,5.2,1.14h9.8v-6.91H517.89z"/>
		<path class="st11" d="M544.01,319.57l-5.27,5.38l-0.04,0.07l5.31,5.31l5.41-5.31L544.01,319.57z M538.73,324.96l-5.38-5.38
			l-5.31,5.45l5.31,5.31l5.38-5.27l0.07-0.03L538.73,324.96z M551.74,371.03c-1.78,0-3.06-0.71-3.85-2.1
			c-0.82-1.39-1.25-2.92-1.25-4.6v-26.47l-6.81-3.96c-0.68,0.71-1.78,1.53-3.28,2.49c-1.53,0.96-3.17,2.17-4.92,3.63
			c-0.93,0.78-1.93,1.64-3.03,2.6c-1.07,0.96-2.07,2.06-2.99,3.24c-0.93,1.21-1.71,2.6-2.31,4.17c-0.61,1.57-0.93,3.42-0.93,5.49
			v10.3c0,1.93,0.32,3.63,1,5.13l0.04,0.07c0.64,1.46,1.5,2.74,2.6,3.81c0.54,0.5,1.11,0.96,1.67,1.35c0.68,0.43,1.35,0.82,2.1,1.14
			c1.39,0.57,2.85,0.85,4.38,0.85c3.78,0,6.81-1.24,9.12-3.7c1.1,1.24,2.35,2.14,3.81,2.67c1.46,0.54,3.03,0.79,4.63,0.79h9.01
			v-6.91H551.74z M539.73,365.47c-0.18,1.53-0.68,2.89-1.5,4.06c-0.85,1.14-2.21,1.71-4.06,1.71c-1.14,0-2.25-0.46-3.28-1.39
			c-1.07-0.93-1.57-2.25-1.57-4.03v-10.3c0-1.25,0.29-2.46,0.86-3.64c0.57-1.21,1.35-2.35,2.39-3.45c1-1.14,2.1-2.21,3.35-3.21
			c1.21-1,2.49-1.92,3.81-2.78V365.47z"/>
		<path class="st11" d="M568.63,371.02c-1.85,0-3.17-0.71-3.92-2.14c-0.78-1.43-1.18-2.99-1.18-4.7v-49.71h-6.95v49.85
			c0,1.68,0.25,3.35,0.79,5.03c0.18,0.57,0.39,1.14,0.64,1.67c0.43,0.96,0.96,1.89,1.64,2.71c0.36,0.43,0.71,0.82,1.11,1.18
			c0.82,0.75,1.68,1.36,2.67,1.89c1.46,0.78,3.21,1.14,5.2,1.14h15.61l3.46-6.91H568.63z"/>
		<path class="st11" d="M205.3,502.72c-0.68-0.78-1.28-1.78-1.82-3.03c-0.53-1.25-0.78-2.85-0.78-4.78V437.8
			c0-2.32-0.46-4.45-1.32-6.41c-0.85-1.96-2.03-3.63-3.53-5.06c-1.5-1.39-3.21-2.49-5.13-3.31c-1.92-0.82-3.92-1.21-5.91-1.21
			c-2.03,0-4.1,0.36-6.16,1.07c-2.07,0.75-3.78,1.85-5.13,3.42l-0.15,0.14c-1.35-1.36-3.06-2.46-5.2-3.28
			c-2.1-0.82-4.13-1.21-6.06-1.21c-1.75,0-3.46,0.25-5.2,0.71c-1.74,0.5-3.28,1.25-4.63,2.32c-1.03-2.1-2.28-4.02-3.74-5.77
			c-1.46-1.74-3.03-3.31-4.77-4.77c-3.28-2.67-6.88-4.7-10.83-5.99c-3.96-1.32-7.91-1.71-11.83-1.25c-3.78,0.5-7.41,1.6-10.98,3.35
			c-3.56,1.71-6.73,4.1-9.48,7.05c-2.74,2.99-4.95,6.52-6.56,10.55c-1.64,4.03-2.42,8.55-2.32,13.54c0.07,4.03,0.85,7.66,2.32,10.94
			c1.42,3.24,3.35,6.06,5.77,8.34c2.39,2.32,5.17,4.06,8.3,5.27c3.14,1.18,6.38,1.78,9.76,1.78c3.85,0,7.45-0.75,10.83-2.32
			l-3.49-7.95c-2.6,1.07-5.06,1.6-7.34,1.6c-2.24,0-4.38-0.39-6.45-1.21c-2.07-0.82-3.92-2-5.56-3.56c-1.64-1.53-2.92-3.42-3.88-5.7
			c-0.96-2.24-1.5-4.78-1.6-7.59c-0.1-3.74,0.46-7.13,1.68-10.19c1.18-3.03,2.81-5.63,4.81-7.8c2.03-2.14,4.38-3.88,7.02-5.17
			c2.64-1.32,5.38-2.1,8.16-2.39c2.49-0.28,5.2,0,8.09,0.85c2.89,0.86,5.59,2.32,8.09,4.35c2.49,1.92,4.49,4.31,5.98,7.2
			c1.5,2.89,2.25,6.13,2.25,9.69v54.91h8.66v-54.62c0-1.92,0.61-3.67,1.74-5.27c1.18-1.6,2.89-2.39,5.2-2.39
			c1.92,0,3.6,0.68,5.06,2.03c1.46,1.35,2.17,3.06,2.17,5.2v55.05H180v-54.62c0-1.82,0.57-3.6,1.75-5.27
			c1.14-1.67,2.81-2.53,5.06-2.53c2.1,0,3.85,0.68,5.2,2.03c1.32,1.35,2,3.13,2,5.34v57.19c0,3.1,0.46,5.81,1.39,8.09
			c0.36,0.89,0.75,1.71,1.21,2.5c3.32-0.57,6.84-1.07,10.62-1.39C206.51,503.75,205.87,503.29,205.3,502.72"/>
		<path class="st11" d="M234.45,419.77l-6.49,6.66l-6.49-6.66l-6.66,6.8l6.66,6.63l6.49-6.34l6.49,6.34l6.8-6.63L234.45,419.77z
			 M227.67,484.05c-2.21,0-3.85-0.85-4.85-2.6c-1-1.71-1.5-3.63-1.5-5.77v-4.92h16.46c1.25,0,2.28-0.39,3.1-1.21
			c0.82-0.82,1.21-1.85,1.21-3.1v-9.83c0-2.32-0.29-4.49-0.93-6.59c-0.64-2.07-1.6-3.92-2.96-5.56c-2.81-3.17-6.45-4.74-10.97-4.74
			c-1.93,0-3.78,0.36-5.49,1.07c-1.75,0.71-3.28,1.75-4.63,3.1c-1.36,1.35-2.43,2.99-3.25,4.92c-0.82,1.92-1.24,4.06-1.24,6.34
			v20.66c0,2.14,0.36,4.21,1.03,6.24c0.68,2,1.64,3.81,2.89,5.41c1.25,1.57,2.82,2.85,4.7,3.81c1.85,0.96,3.99,1.46,6.41,1.46h29.04
			v-8.69H227.67z M221.33,455.15c0-2.39,0.64-4.13,1.92-5.2c1.32-1.03,2.64-1.57,3.99-1.57c2.32,0,3.92,0.78,4.84,2.32
			c0.89,1.53,1.36,3.49,1.36,5.92v5.49h-12.12V455.15z"/>
		<path class="st11" d="M289.35,484.05c-2.21,0-3.81-0.86-4.85-2.6c-1-1.71-1.5-3.63-1.5-5.77v-31.5h-6.8
			c1.92-1.53,3.71-3.17,5.35-4.99c1.64-1.78,3.03-3.71,4.2-5.84l-6.38-4.45c-1.35,2.39-3.49,4.74-6.48,7.05
			c-2.99,2.32-5.88,4.63-8.66,6.95c-2.99,2.39-5.67,5.38-8.02,8.87c-2.39,3.53-3.56,7.84-3.56,12.94v12.86
			c0,2.39,0.43,4.56,1.25,6.41l0.04,0.07c0.71,1.64,1.64,3.03,2.78,4.24l0.5,0.54c1.39,1.35,2.96,2.39,4.7,3.1
			c1.71,0.71,3.56,1.1,5.49,1.1c4.7,0,8.52-1.57,11.4-4.63c1.35,1.53,2.92,2.63,4.78,3.31c1.82,0.68,3.74,1.03,5.77,1.03h11.26
			v-8.69H289.35z M274.32,476.53c-0.07,2.03-0.64,3.85-1.64,5.41c-1.03,1.6-2.78,2.39-5.27,2.39c-1.46,0-2.81-0.57-4.13-1.71
			c-1.28-1.18-1.92-2.85-1.92-5.06V464.7c0-3.17,0.78-5.95,2.35-8.3c1.6-2.35,3.7-4.7,6.31-7.02l4.31-3.45V476.53z"/>
		<path class="st11" d="M310.45,484.05c-2.32,0-3.96-0.89-4.92-2.67c-0.96-1.78-1.42-3.71-1.42-5.84v-26.3h8.8l2.89-8.66H304.1
			v-27.15h-8.7v27.15h-5.63v8.66h5.63v26.44c0,2.14,0.32,4.2,0.97,6.27c0.21,0.75,0.46,1.43,0.78,2.1c0.53,1.25,1.25,2.39,2.1,3.42
			c0.43,0.5,0.85,1,1.35,1.42c1,0.96,2.1,1.75,3.31,2.39c1.85,0.96,4.03,1.46,6.52,1.46h17.03l4.35-8.69H310.45z"/>
		<path class="st11" d="M458.71,499.69c-0.5-1.25-0.78-2.85-0.78-4.77V437.8c0-2.32-0.43-4.45-1.28-6.41
			c-0.89-1.96-2.07-3.63-3.57-5.06c-1.5-1.39-3.21-2.49-5.13-3.31c-1.92-0.82-3.88-1.21-5.91-1.21c-2.03,0-4.06,0.36-6.13,1.07
			c-2.07,0.75-3.78,1.85-5.13,3.42l-0.14,0.15c-1.35-1.36-3.1-2.46-5.2-3.28c-2.1-0.82-4.13-1.21-6.06-1.21
			c-1.74,0-3.49,0.25-5.2,0.71c-1.75,0.5-3.28,1.25-4.63,2.32c-1.07-2.1-2.32-4.03-3.74-5.77c-1.46-1.75-3.03-3.32-4.78-4.77
			c-3.27-2.67-6.87-4.7-10.83-5.99c-3.96-1.32-7.91-1.71-11.86-1.25c-3.74,0.5-7.41,1.6-10.98,3.35c-3.56,1.71-6.7,4.1-9.44,7.05
			c-2.75,2.99-4.96,6.52-6.59,10.55c-1.64,4.03-2.39,8.55-2.32,13.54c0.11,4.02,0.89,7.66,2.32,10.94c1.46,3.24,3.39,6.06,5.77,8.34
			c2.42,2.32,5.2,4.06,8.3,5.27c3.14,1.18,6.41,1.78,9.76,1.78c3.85,0,7.48-0.75,10.83-2.32l-3.46-7.95c-2.6,1.07-5.06,1.6-7.38,1.6
			c-2.21,0-4.35-0.39-6.41-1.21c-2.07-0.82-3.92-2-5.56-3.56c-1.64-1.53-2.96-3.42-3.92-5.7c-0.96-2.24-1.5-4.78-1.57-7.59
			c-0.11-3.74,0.43-7.13,1.64-10.19c1.21-3.03,2.81-5.63,4.84-7.8c2.03-2.14,4.35-3.88,7.02-5.17c2.64-1.32,5.35-2.1,8.16-2.39
			c2.49-0.28,5.2,0,8.09,0.86c2.89,0.85,5.56,2.32,8.09,4.35c2.5,1.92,4.49,4.31,5.99,7.2c1.5,2.89,2.24,6.13,2.24,9.69v54.91h8.66
			v-54.62c0-1.92,0.57-3.67,1.75-5.27c1.14-1.6,2.89-2.39,5.2-2.39c1.93,0,3.6,0.68,5.06,2.03c1.43,1.35,2.14,3.06,2.14,5.2v55.05
			h8.69v-54.62c0-1.82,0.57-3.6,1.71-5.27c1.18-1.68,2.85-2.53,5.06-2.53c2.14,0,3.85,0.67,5.2,2.03c1.35,1.35,2.03,3.14,2.03,5.34
			v57.19c0,2.28,0.25,4.35,0.75,6.2c3.35,0.07,6.56,0.18,9.58,0.32C459.28,500.9,458.99,500.33,458.71,499.69"/>
		<path class="st11" d="M504.6,484.05c-2.25,0-3.85-0.86-4.85-2.6c-1.03-1.71-1.53-3.63-1.53-5.77v-31.5h-6.77
			c1.92-1.53,3.71-3.17,5.35-4.99c1.64-1.78,3.03-3.71,4.17-5.84l-6.34-4.45c-1.35,2.39-3.53,4.74-6.52,7.05
			c-2.96,2.32-5.84,4.63-8.66,6.95c-2.99,2.39-5.67,5.38-8.02,8.87c-2.35,3.53-3.53,7.84-3.53,12.94v12.86
			c0,2.39,0.39,4.56,1.21,6.41c0.82,1.89,1.93,3.49,3.35,4.85c1.39,1.35,2.96,2.39,4.67,3.1c1.75,0.71,3.56,1.1,5.49,1.1
			c4.74,0,8.55-1.57,11.44-4.63c1.35,1.53,2.92,2.63,4.78,3.31c1.82,0.68,3.74,1.03,5.77,1.03h11.26v-8.69H504.6z M489.56,476.53
			c-0.11,2.03-0.64,3.85-1.67,5.41c-1,1.6-2.74,2.39-5.27,2.39c-1.42,0-2.81-0.57-4.1-1.71c-1.32-1.18-1.96-2.85-1.96-5.06V464.7
			c0-3.17,0.78-5.95,2.39-8.3c1.6-2.35,3.67-4.7,6.27-7.02l4.35-3.45V476.53z"/>
		<path class="st11" d="M535.92,440.58h-10.23c-4.74,0-8.41,1.67-11.08,4.99c-2.64,3.31-3.95,7.34-3.95,12.04v35.13h8.66v-34.99
			c0-0.96,0.11-1.93,0.29-2.96c0.21-1,0.53-1.93,1.03-2.75c0.46-0.82,1.1-1.5,1.92-2.03c0.82-0.5,1.85-0.78,3.14-0.78h13.11
			L535.92,440.58z"/>
		<path class="st11" d="M578.39,484.05v-8.52c0-3.56-0.93-6.95-2.81-10.12c-1.85-3.17-4.7-5.2-8.44-6.06l13.86-18.78h-9.66
			l-15.89,19.49v-47.96h-8.69v80.63h8.69v-18.06c0-1.93,0.68-3.67,2.07-5.2c1.42-1.53,3.13-2.32,5.13-2.32
			c2.14,0,3.85,0.75,5.13,2.24c1.32,1.5,1.96,3.39,1.96,5.7v13.43c0,1.14,0.46,2.14,1.39,2.96c0.89,0.82,2,1.24,3.24,1.24h20.81
			v-8.69H578.39z"/>
		<path class="st11" d="M611.21,419.77l-6.52,6.66l-6.49-6.66l-6.66,6.8l6.66,6.63l6.49-6.34l6.52,6.34l6.77-6.63L611.21,419.77z
			 M604.4,484.05c-2.21,0-3.81-0.85-4.85-2.6c-1-1.71-1.5-3.63-1.5-5.77v-4.92h16.46c1.25,0,2.28-0.39,3.1-1.21
			c0.82-0.82,1.21-1.85,1.21-3.1v-9.83c0-2.32-0.29-4.49-0.93-6.59c-0.6-2.07-1.6-3.92-2.96-5.56c-2.78-3.17-6.45-4.74-10.97-4.74
			c-1.93,0-3.78,0.36-5.49,1.07c-1.75,0.71-3.28,1.75-4.63,3.1c-1.35,1.35-2.42,2.99-3.24,4.92c-0.82,1.92-1.25,4.06-1.25,6.34
			v20.66c0,2.14,0.36,4.21,1.03,6.24c0.25,0.68,0.5,1.35,0.82,2c0.57,1.25,1.25,2.39,2.07,3.42c0.57,0.71,1.18,1.36,1.89,1.93
			c0.85,0.75,1.78,1.35,2.81,1.89c1.85,0.96,3.99,1.46,6.41,1.46h29.04v-8.69H604.4z M598.06,455.15c0-2.39,0.64-4.13,1.92-5.2
			c1.32-1.03,2.64-1.57,3.99-1.57c2.31,0,3.92,0.78,4.84,2.32c0.89,1.53,1.35,3.49,1.35,5.92v5.49h-12.11V455.15z"/>
		<path class="st11" d="M644.41,484.05c-2.31,0-3.95-0.89-4.92-2.67c-0.96-1.78-1.42-3.71-1.42-5.84v-26.3h8.8l2.89-8.66h-11.69
			v-27.15h-8.7v27.15h-5.63v8.66h5.63v26.44c0,2.14,0.32,4.2,0.96,6.27c0.21,0.75,0.46,1.43,0.79,2.1c0.53,1.25,1.25,2.39,2.1,3.42
			l0.21,0.25c1.25,1.46,2.75,2.67,4.49,3.57c1.82,0.96,3.99,1.46,6.48,1.46h17.03l4.35-8.69H644.41z"/>
		<path class="st12" d="M665.62,484.05c-1.64,3.24-4.81,6.13-9.19,8.69c-30.68,17.92-122.22,20.27-190.56,19.88
			c-1.82,0-3.6,0-5.38-0.04c-30.07-0.21-55.01-0.89-67.27-0.89c-67.2,0-248.81-13.93-286.44,48.21
			c51.98-23.73,163.79-32.71,286.44-28.68c79.1,2.56,268.98,3.53,273.18-47.18h-0.61H665.62z"/>
	</g>
	<path class="st12" d="M380.53,223.88l1.35,0.15v-59.6h-0.04v-6.18h0.04v-1.33c0-1.28-1.53-1.7-2.29-0.94v0.01
		c-0.24,0.24-0.38,0.57-0.38,0.93v67.1L380.53,223.88z M449.43,275.72c7.81-10.39,15.95-20.18,23.79-30.54H287.84
		c7.85,10.36,15.99,20.15,23.8,30.54l-101.83-0.9l74.66-9.77l-82.91-0.82l74.9-8.69l-82.52-0.73l83-9.63h-89.74l47.28-5.21
		c6.93-26.1,20.67-49.43,39.21-67.96c27.35-27.36,65.14-44.27,106.88-44.27c41.73,0,79.53,16.91,106.88,44.27
		c18.54,18.54,32.28,41.86,39.21,67.96l47.23,5.21h-89.74l83,9.63l-74.12,0.73l66.5,8.69l-74.51,0.82l66.26,9.77L449.43,275.72z
		 M388.06,224.7l8.45,0.93v-60.12c-2.78-0.38-5.6-0.67-8.45-0.85V224.7z M402.65,226.31l2.68,0.29v-59.51l-0.03-0.01v-6.31
		l0.03,0.01c0-0.9,0.14-1.78-0.37-2.29l-1-0.39c-0.74,0.01-1.31,0.58-1.31,1.31V226.31z M411.5,227.29l8.45,0.93v-56.87
		c-2.76-1.01-5.58-1.91-8.45-2.72V227.29z M426.1,228.9l2.67,0.29v-54.19l-0.03-0.02v-6.75l0.03,0.01c0-1.09,0.18-2.36-0.38-2.92
		l-1-0.38c-0.75,0-1.3,0.61-1.3,1.31V228.9z M434.95,229.87l8.25,0.91v-47.74c-2.68-1.76-5.42-3.4-8.25-4.92V229.87z M449.34,231.46
		l2.67,0.29v-42.31l-0.03-0.03v-7.77l0.03,0.02v-2.57c0-0.38-0.14-0.71-0.38-0.93h-0.01c-0.51-0.51-1.38-0.51-1.9,0l-0.38,0.93
		V231.46z M458.19,232.43l8.24,0.91v-30.15c-1.59-1.79-3.23-3.54-4.93-5.24c-1.08-1.08-2.19-2.14-3.31-3.19V232.43z M472.58,234.02
		l2.64,0.29v-30.23l0.03,0.05v-3.71c0-0.28-0.08-0.54-0.22-0.75l-1.15-0.57c-0.74,0.01-1.3,0.58-1.3,1.32V234.02z M481.43,234.99
		l5.14,0.57c-1.52-3.72-3.23-7.35-5.14-10.89V234.99z M493.49,236.32l0.28,0.03c0.7-0.36,1.46-0.61,2.26-0.73
		c-3.69-9.86-8.59-19.09-14.6-27.64v4.69c4.16,6.3,7.73,13.02,10.65,20.07C492.57,233.92,493.03,235.12,493.49,236.32 M503.2,237.39
		c-6.37-18.79-16.96-35.91-31.09-50.05c-5.14-5.13-10.73-9.85-16.7-14.09l-2.95-2.03c-6.78-4.53-14.01-8.44-21.61-11.65
		c-0.35-0.18-0.7-0.33-1.07-0.44c-7.67-3.15-15.68-5.6-23.96-7.24c-16.63-3.3-33.87-3.3-50.5,0c-8.28,1.64-16.29,4.08-23.96,7.24
		c-0.37,0.11-0.72,0.26-1.06,0.43c-7.61,3.22-14.85,7.13-21.62,11.65c-7.08,4.74-13.65,10.13-19.65,16.12
		c-14.24,14.24-24.83,31.36-31.06,50.04l-5.98,0.66c6.61-20.82,18.13-39.45,33.21-54.54c24.41-24.41,58.14-39.5,95.38-39.5
		c37.25,0,70.97,15.1,95.38,39.5c15.07,15.08,26.6,33.72,33.21,54.54L503.2,237.39z M267.34,236.35l0.29-0.03
		c0.45-1.2,0.92-2.39,1.41-3.57c2.92-7.05,6.49-13.77,10.65-20.07v-4.68c-6,8.53-10.9,17.78-14.61,27.63
		C265.88,235.74,266.64,235.99,267.34,236.35 M274.55,235.55l5.14-0.57v-10.32C277.78,228.21,276.07,231.84,274.55,235.55
		 M285.84,234.31l2.67-0.29v-23.2l-0.04,0.05l0.04-10.45c0-1.27-1.53-1.7-2.29-0.94v0.01c-0.23,0.24-0.38,0.57-0.38,0.93V234.31z
		 M294.69,233.33l8.24-0.91v-37.67c-1.13,1.04-2.23,2.1-3.31,3.19c-1.7,1.7-3.35,3.45-4.93,5.24V233.33z M309.08,231.75l2.67-0.29
		v-44.06l-0.03,0.03v-7.61l0.03-0.03c0-0.63,0.08-1.17-0.37-1.62h-0.02c-0.79-0.8-2.28-0.32-2.28,0.93V231.75z M317.93,230.77
		l8.25-0.91v-51.75c-2.83,1.52-5.58,3.17-8.25,4.92V230.77z M332.32,229.19l2.67-0.29v-55.07l-0.03,0.01v-6.68l0.03-0.02
		c0-0.7,0.11-1.33-0.37-1.8c-0.8-0.8-1.91-0.14-1.91,0c-0.24,0.23-0.39,0.56-0.39,0.93V229.19z M341.17,228.21l8.45-0.93v-58.65
		c-2.86,0.8-5.69,1.71-8.45,2.72V228.21z M355.76,226.6l2.67-0.29v-59.77l-0.03,0.01v-6.29l0.03,0c0-0.76,0.13-2.16-1.37-2.16
		c-0.74,0.01-1.3,0.58-1.3,1.31V226.6z M364.61,225.63l8.45-0.93v-60.04c-2.85,0.18-5.66,0.47-8.45,0.85V225.63z M396.5,159.28
		L396.5,159.28c0.02-0.91,0.2-1.78,0.51-2.59c-2.98-0.39-6-0.69-9.04-0.87l0.07,2.65C390.9,158.64,393.72,158.91,396.5,159.28
		 M420.08,164.86L420.08,164.86c0.17-0.88,0.49-1.71,0.93-2.45c-3.11-1.08-6.28-2.05-9.52-2.88v2.71
		C414.41,163,417.27,163.88,420.08,164.86 M443.81,176.12L443.81,176.12c0.35-0.82,0.84-1.56,1.45-2.2
		c-3.33-2.06-6.77-3.96-10.32-5.7v2.94C437.98,172.69,440.94,174.35,443.81,176.12 M468.03,195.79L468.03,195.79l1.96-1.76
		l-11.81-10.93v3.42L468.03,195.79z M364.61,159.28L364.61,159.28c2.79-0.37,5.61-0.64,8.45-0.82l0.08-2.65
		c-3.04,0.19-6.05,0.48-9.04,0.87C364.42,157.5,364.6,158.37,364.61,159.28 M341.04,164.86L341.04,164.86
		c2.82-0.98,5.68-1.85,8.58-2.62v-2.71c-3.23,0.83-6.41,1.79-9.53,2.88C340.54,163.15,340.86,163.98,341.04,164.86 M317.31,176.12
		L317.31,176.12c2.88-1.78,5.83-3.43,8.86-4.96v-2.94c-3.54,1.74-6.98,3.64-10.32,5.7C316.46,174.56,316.96,175.31,317.31,176.12
		 M293.08,195.79L293.08,195.79l9.85-9.26v-3.42l-11.81,10.93L293.08,195.79z"/>
</g>
<path class="st13" d="M306.52,205.14c11.2-11.68,40.94-12.15,55.53-11.64c3.05,0.11,6.09,0.28,9.13,0.51
	c14.86,1.11,43.92,4.96,56.92,14.11c15.69,0.48,40.93,2.94,52.33,14.28c6.04,6.01,6.87,11.35,6.59,19.57
	c-0.24,7.12-0.91,14.47-1.63,21.57c-0.28,2.82-0.17,6.98-1.75,9.36c-1.02,1.53-2.41,2.33-3.95,3.22c-1.98,1.15-3.86,2.34-5.73,3.66
	c-16.91,11.94-38.01,12.84-57.94,13.14c-6.08,0.09-12.21,0.15-18.27,0.57c-3.24,0.23-8.7,0.65-11.68,1.96
	c-8.32,3.67-17.08,6.25-26.06,7.72c-21.03,3.44-48.3,5.19-66.43-8.17c-15.81-11.64-19.84-31.08-19.47-49.68
	c0.04-2.03-0.08-4.06-0.02-6.09C274.6,221.95,292.06,210.97,306.52,205.14"/>
<path class="st14" d="M304.94,202.77c6.18-6.08,16.75-9.24,27.69-10.79c10.84-1.54,22.1-1.53,29.51-1.27
	c1.62,0.06,3.17,0.13,4.62,0.21c1.64,0.09,3.17,0.19,4.61,0.29h0.01c8.85,0.66,22.7,2.29,35.31,5.41c8.61,2.14,16.67,4.98,22.3,8.73
	c7.87,0.27,17.92,1.04,27.44,3.09c10.16,2.19,19.81,5.86,25.94,11.96c3.38,3.36,5.32,6.58,6.38,10.15c1.03,3.45,1.18,7.1,1.03,11.49
	c-0.13,3.73-0.35,7.37-0.64,10.92c-0.27,3.4-0.63,7.1-1,10.83c-0.05,0.47-0.09,1.14-0.14,1.84c-0.19,2.91-0.41,6.3-2.06,8.78v0.01
	c-1.36,2.04-3.01,3-4.83,4.05l-0.04,0.03c-0.9,0.52-1.83,1.08-2.81,1.71l0-0.01c-0.84,0.53-1.74,1.14-2.71,1.83
	c-8.84,6.24-18.72,9.59-28.96,11.41c-10.03,1.78-20.44,2.09-30.55,2.24l-1.39,0.02c-5.52,0.08-11.08,0.16-16.72,0.55
	c-1.59,0.11-3.71,0.27-5.74,0.55c-1.92,0.27-3.77,0.64-5,1.19c-4.24,1.87-8.6,3.47-13.08,4.79c-4.47,1.32-9.03,2.37-13.65,3.12
	c-10.69,1.75-22.98,3.07-34.94,2.25c-12.19-0.83-24.04-3.89-33.59-10.92c-8.41-6.2-13.68-14.44-16.79-23.58
	c-3.05-8.97-4-18.8-3.81-28.4c0.02-0.91,0-1.84-0.01-2.77c-0.02-1.11-0.03-2.23,0-3.34c0.25-8.26,3.95-15.17,9.36-20.84
	C287.32,211.3,296.58,206.2,304.94,202.77 M333.39,197.5c-10.12,1.44-19.77,4.25-24.87,9.57l-0.41,0.43l-0.56,0.23
	c-7.89,3.18-16.69,7.93-22.86,14.42c-4.52,4.75-7.62,10.45-7.83,17.15c-0.03,1.03-0.02,2.07,0,3.11c0.01,0.98,0.03,1.96,0.01,2.96
	c-0.18,9,0.7,18.19,3.52,26.5c2.77,8.13,7.42,15.43,14.81,20.88c8.58,6.32,19.43,9.08,30.66,9.85c11.47,0.79,23.33-0.49,33.67-2.18
	c4.38-0.72,8.72-1.71,12.98-2.97c4.2-1.24,8.34-2.76,12.4-4.55c1.75-0.77,4.12-1.27,6.48-1.6c2.25-0.31,4.48-0.48,6.14-0.6
	c5.56-0.39,11.31-0.47,17.03-0.55l1.4-0.02c9.82-0.15,19.92-0.44,29.65-2.17c9.51-1.69,18.64-4.77,26.71-10.47
	c0.9-0.64,1.87-1.29,2.94-1.96v-0.01c0.92-0.59,1.92-1.19,3-1.82l0.04-0.02c1.22-0.71,2.32-1.35,2.98-2.33l0,0
	c0.83-1.26,1-3.84,1.14-6.05c0.04-0.67,0.09-1.31,0.16-2.04c0.34-3.37,0.68-6.9,0.98-10.72c0.29-3.67,0.52-7.27,0.64-10.66
	c0.13-3.83,0.01-6.97-0.81-9.74c-0.79-2.66-2.29-5.12-4.95-7.77c-5.26-5.23-13.93-8.46-23.17-10.45
	c-9.52-2.05-19.57-2.78-27.27-3.01l-0.85-0.03l-0.67-0.47c-5.03-3.54-12.76-6.28-21.12-8.35c-12.23-3.03-25.74-4.62-34.4-5.26
	c-1.6-0.12-3.1-0.22-4.51-0.29c-1.59-0.09-3.09-0.16-4.51-0.21C354.77,196.03,343.87,196.02,333.39,197.5"/>
<path class="st13" d="M475.42,262.34c-0.98,9.72,0.88,5.27-9,12.24c-15.32,10.82-35.21,11.38-52.39,11.64
	c-12.13,0.18-24.59,0.37-30.04,2.77c-7.79,3.44-15.75,5.71-23.6,6.99c-40.47,6.61-77.27,1.2-76.23-50.35
	c0.04-1.89-0.07-3.91-0.02-5.72c0.43-14.19,15.93-23.65,28.89-28.71c6.85-8.24,27.76-11.11,49.83-10.33
	c24.99,0.89,51.84,6.3,61.16,13.8c26.02,0.63,41.36,5.72,47.96,12.28c4.33,4.3,5.2,7.74,4.95,15.28
	C476.74,248.03,475.87,257.91,475.42,262.34"/>
<path class="st15" d="M291.61,247.84c0.97,1.44,2.18,2.86,3.6,4.25c0.96,0.93,2.01,1.85,3.16,2.73c1.95,1.51,4.17,2.95,6.61,4.29
	c8.8,4.84,19.43,7.78,30.08,8.91c10.27,1.09,20.99,0.52,31.45-1.87c5.69-1.3,11.31-3.15,16.71-5.53c6.25-2.76,19.15-2.95,31.71-3.14
	c15.86-0.24,32.58-0.45,47.38-9.18c7.16-4.22,12.94-10.45,6.42-16.93c-9.33-9.27-33.23-10.97-46.78-11.25
	c-11.18-9.79-44.09-13.2-59.88-13.76c-10.76-0.38-39.38-1.1-46.75,9.48c-7.16,2.74-13.9,5.22-19.33,10.91
	C290.88,232.11,286.71,240.53,291.61,247.84 M361.79,278.86c-1.18,0-2.94,1.17-3.93,2.62c-0.99,1.45-0.84,2.62,0.33,2.62
	c1.18,0,2.94-1.18,3.93-2.62C363.12,280.04,362.97,278.86,361.79,278.86 M395.25,236.82c2.49,0.2,1.97,0.89-1.56,2.07
	c-6.42,2.14-11.74-2.8-2.35-3.87C397.06,234.37,398.36,234.97,395.25,236.82 M291.98,256.56c9.96,9.7,26.18,15.23,41.81,16.92
	c16.6,1.8,34.38-0.63,50.45-7.73c5.45-2.41,17.91-2.59,30.04-2.78c16.67-0.25,34.05-0.65,49.56-9.8c3.13-1.85,6.18-4.17,8.46-6.93
	c-1.23,18.81,2.39,16.55-7.76,23.72c-14.3,10.09-33.84,10.52-49.85,10.75c-12.56,0.19-25.46,0.38-31.71,3.14
	c-7.43,3.28-15.02,5.45-22.51,6.67c-27.53,4.5-73.67,0.84-72.97-39.38l0.01,0.01c1.66,13.69,7.6,23.02,17.84,27.97
	C297.28,274.21,292.76,266.61,291.98,256.56 M469.97,251.05c-0.05,6.99-0.08,10.49-0.08,10.49c-3.67,5.64-11.27,9.92-22.77,12.82
	c9.85-3.92,16.18-10.85,18.97-20.79C468.67,251.9,469.97,251.05,469.97,251.05 M359.77,274.75c13.81-2.95,23.2-5.74,28.18-8.35
	c-1.91,8.93-2.86,13.4-2.86,13.4c-15.36,7.67-30.64,10.97-45.83,9.91C353.08,285.88,359.91,280.89,359.77,274.75 M351.28,210.18
	c27.35-1.92,70.68,4.29,51.1,17.66c1.49-2.55-0.52-5.43-6.03-8.65c6.12,4.1,6.13,8.25,0.04,12.45c-0.7,0.15-1.48,0.27-2.33,0.35
	c0.33-0.2,0.62-0.42,0.85-0.64c0.6-0.58,0.87-1.22,0.81-1.87c-0.05-0.63-0.41-1.26-1.07-1.83c-1.36-1.2-4.06-2.22-8.02-2.63
	c0.57-0.38,0.97-0.74,1.21-1.11c0.39-0.6,0.35-1.16-0.11-1.68l-0.44-0.02l-0.07,0.41c0.29,0.33,0.32,0.67,0.08,1.03
	c-0.26,0.39-0.8,0.82-1.63,1.28c-0.4-0.03-0.82-0.05-1.25-0.07c-1.98-0.08-3.43-0.36-4.38-0.73c-1.98-0.78-0.64-4.44-2.14-1.44
	c-0.21,0.42-0.16,0.83,0.15,1.23c0.27,0.34,0.74,0.66,1.42,0.93c1.06,0.42,2.65,0.73,4.78,0.81c4.88,0.2,8.09,1.26,9.54,2.54
	c0.52,0.46,0.8,0.94,0.85,1.4c0.03,0.44-0.15,0.88-0.57,1.29c-0.48,0.46-1.24,0.88-2.31,1.22c-2.81,0.05-6.23-0.24-10.24-0.95
	c-10.07-1.77-22.24-4.96-42.93-12.81C322.17,212.12,340.42,210.95,351.28,210.18 M399.94,230.15c-0.47,0.38-1.09,0.72-1.84,1
	C398.79,230.83,399.41,230.49,399.94,230.15 M314.37,249.49c24.68-6.51,46.14-4.27,59.22-5.07l-39.12,9.87
	c20.44-4.36,35.48-7.58,45.13-9.68l0.36,0.36c0.31,0.4,0.39,0.84,0.24,1.29c-0.16,0.46-0.57,0.94-1.21,1.4
	c-1.78,1.28-5.26,2.35-10.19,2.54c-2.15,0.08-3.83,0.39-4.99,0.81c-0.75,0.27-1.3,0.59-1.66,0.93c-0.75,0.72-0.46,2.2-0.32,1.83
	c0.07-0.2,0.35-0.62,0.93-1.33c0.26-0.33,0.97-0.54,1.43-0.71c1.04-0.37,2.57-0.65,4.57-0.73l1.26-0.07
	c0.71,0.46,1.15,0.88,1.3,1.28c0.14,0.36,0.03,0.7-0.35,1.03l-0.04,0.41l0.45-0.02c0.59-0.53,0.77-1.09,0.54-1.69
	c-0.14-0.36-0.45-0.73-0.92-1.11c4.06-0.41,7.02-1.43,8.69-2.63c0.81-0.58,1.33-1.21,1.54-1.83c0.22-0.65,0.12-1.29-0.33-1.87
	l-0.14-0.16c2.81-0.61,5.12-1.12,6.92-1.52c-0.38,3.68-11.15,14.73-20.18,19.57c-10.45,2.13-16.68,4.29-29.5,2.87
	C317.25,262.98,293.62,254.97,314.37,249.49 M414.4,230.3c24.15-10.11,55.11-1.05,39.82,13.76c-9.97,1.21-22.55-0.15-37.73-4.09
	c-4.3-1.11-9.48-2.11-11.84-3.18c4.38-0.18,15.37-0.81,32.97-1.89l-33.45-0.17C405.67,233.74,409.23,232.46,414.4,230.3
	 M393.51,255.36c-2.6-4.04-0.48-12.31,3.18-14.13c-0.41,0.5-0.6,1.04-0.55,1.59c0.05,0.63,0.41,1.25,1.07,1.83
	c1.36,1.2,4.06,2.22,8.02,2.63c-0.57,0.38-0.97,0.74-1.21,1.11c-0.39,0.6-0.35,1.16,0.11,1.69l0.44,0.01l0.07-0.41
	c-0.29-0.33-0.32-0.68-0.08-1.03c0.26-0.4,0.8-0.82,1.63-1.28l1.25,0.07c1.98,0.08,3.43,0.36,4.38,0.73
	c1.97,0.78,0.64,4.43,2.13,1.43c0.21-0.41,0.16-0.83-0.15-1.23c-0.27-0.34-0.74-0.67-1.42-0.93c-1.06-0.42-2.65-0.73-4.78-0.81
	c-4.88-0.19-8.09-1.26-9.54-2.54c-0.52-0.46-0.8-0.94-0.85-1.4c-0.04-0.44,0.15-0.88,0.56-1.28c0.19-0.18,0.42-0.36,0.69-0.52
	c9.26,0.61,25.59,2.02,51.79,7.26C448.48,256.39,423.35,258.27,393.51,255.36 M318.81,219.78c24.86,4.28,66.38,17.01,61.49,17.61
	c-0.49,0.06-1.02,0.12-1.58,0.19l-56.85-6.21c22.98,3.45,38.93,5.82,47.85,7.1c-15.48,1.41-41.13,3.38-69.53,6.16
	c-6.86,0.67-8.96,2.95-7.11-6.81C295.24,226.45,303.82,220.44,318.81,219.78 M475.42,262.34c-0.98,9.72,0.88,5.27-9,12.24
	c-15.32,10.82-35.21,11.38-52.39,11.64c-12.13,0.18-24.59,0.37-30.04,2.77c-7.79,3.44-15.75,5.71-23.6,6.99
	c-40.47,6.61-77.27,1.2-76.23-50.35c0.04-1.89-0.07-3.91-0.02-5.72c0.43-14.19,15.93-23.65,28.89-28.71
	c6.85-8.24,27.75-11.11,49.83-10.33c24.99,0.88,51.84,6.3,61.16,13.79c26.02,0.63,41.36,5.72,47.96,12.28
	c4.33,4.3,5.2,7.74,4.95,15.28C476.74,248.03,475.87,257.91,475.42,262.34"/>
</svg>
