<svg id="Layer_1" data-name="Layer 1" xmlns="http://www.w3.org/2000/svg" viewBox="0 0 415.97 313.92"><defs><style>.cls-1,.cls-2{fill:#6f1c11;}.cls-2,.cls-3,.cls-4,.cls-5{fill-rule:evenodd;}.cls-3{fill:#fff;}.cls-4{fill:#f29b30;}.cls-5,.cls-6{fill:#c74427;}</style></defs><title>Desi Halal Meat Market-6</title><path class="cls-1" d="M128,333.39a8.32,8.32,0,0,1-1.32-2.2,8.92,8.92,0,0,1-.57-3.48V286.23a11.39,11.39,0,0,0-1-4.66,11.18,11.18,0,0,0-2.56-3.67,13.06,13.06,0,0,0-3.73-2.41,11,11,0,0,0-4.29-.88,13.9,13.9,0,0,0-4.48.78,8.71,8.71,0,0,0-3.72,2.49l-.11.1a10.61,10.61,0,0,0-3.78-2.39,12.2,12.2,0,0,0-4.4-.87,14.83,14.83,0,0,0-3.78.51,9.5,9.5,0,0,0-3.36,1.69,20.79,20.79,0,0,0-2.72-4.19,27.66,27.66,0,0,0-3.46-3.47,24.55,24.55,0,0,0-7.87-4.35,19.72,19.72,0,0,0-8.6-.91,25.48,25.48,0,0,0-8,2.43,23.1,23.1,0,0,0-6.89,5.13A24.77,24.77,0,0,0,47,289.06,20,20,0,0,0,48.67,297a18.3,18.3,0,0,0,4.19,6.06,17.56,17.56,0,0,0,6,3.83A19.87,19.87,0,0,0,66,308.18a18.38,18.38,0,0,0,7.86-1.68l-2.53-5.78A14,14,0,0,1,66,301.88a12.57,12.57,0,0,1-8.73-3.46,11.77,11.77,0,0,1-2.81-4.14,15.41,15.41,0,0,1-1.17-5.52,18.64,18.64,0,0,1,1.22-7.4,17.12,17.12,0,0,1,8.6-9.42A17.26,17.26,0,0,1,69,270.2a15,15,0,0,1,5.88.62A17.18,17.18,0,0,1,80.77,274a15.45,15.45,0,0,1,4.34,5.23,15.09,15.09,0,0,1,1.64,7v39.89H93V286.46a6.55,6.55,0,0,1,1.26-3.83,4.38,4.38,0,0,1,3.78-1.73,5.24,5.24,0,0,1,3.67,1.47,4.89,4.89,0,0,1,1.58,3.78v40h6.29V286.46a6.55,6.55,0,0,1,1.27-3.83,4.17,4.17,0,0,1,3.68-1.83,5.13,5.13,0,0,1,3.77,1.47,5.31,5.31,0,0,1,1.46,3.88v41.54a15.5,15.5,0,0,0,1,5.88,13.31,13.31,0,0,0,.88,1.82c2.41-.42,5-.78,7.71-1a4.88,4.88,0,0,1-1.4-1" transform="translate(-46.98 -61)"/><path class="cls-1" d="M149.17,273.13,144.46,278l-4.72-4.84-4.83,4.94,4.83,4.82,4.72-4.61,4.71,4.61,4.94-4.82Zm-4.92,46.7a3.77,3.77,0,0,1-3.53-1.89,8.22,8.22,0,0,1-1.08-4.19v-3.58h12a3,3,0,0,0,3.13-3.13V299.9a16.46,16.46,0,0,0-.67-4.79,11.92,11.92,0,0,0-2.15-4,10.13,10.13,0,0,0-8-3.44,10.28,10.28,0,0,0-4,.78,10,10,0,0,0-3.36,2.25,10.9,10.9,0,0,0-2.36,3.57,11.63,11.63,0,0,0-.9,4.61v15a14.52,14.52,0,0,0,.74,4.53,13.37,13.37,0,0,0,2.1,3.93,10.34,10.34,0,0,0,3.42,2.77,9.93,9.93,0,0,0,4.65,1.06h21.1v-6.31Zm-4.61-21a4.65,4.65,0,0,1,1.4-3.77,4.7,4.7,0,0,1,2.9-1.15,3.75,3.75,0,0,1,3.51,1.69,8.42,8.42,0,0,1,1,4.3v4h-8.8v-5.06Z" transform="translate(-46.98 -61)"/><path class="cls-1" d="M189.05,319.83a3.81,3.81,0,0,1-3.52-1.89,8.13,8.13,0,0,1-1.09-4.19V290.86H179.5a31.77,31.77,0,0,0,3.89-3.62,21.63,21.63,0,0,0,3.05-4.24l-4.64-3.24a17.63,17.63,0,0,1-4.7,5.13q-3.27,2.52-6.29,5a28.62,28.62,0,0,0-5.83,6.45,16.31,16.31,0,0,0-2.59,9.4v9.34a11.55,11.55,0,0,0,.91,4.65l0,.06a10.61,10.61,0,0,0,2,3.08l.36.39a10.69,10.69,0,0,0,3.42,2.25,10.26,10.26,0,0,0,4,.8A10.91,10.91,0,0,0,181.4,323a8.37,8.37,0,0,0,3.47,2.4,12,12,0,0,0,4.19.75h8.18v-6.31Zm-10.92-5.47a7.61,7.61,0,0,1-1.19,3.93,4.16,4.16,0,0,1-3.82,1.74,4.46,4.46,0,0,1-3-1.24,4.74,4.74,0,0,1-1.4-3.68v-9.34a10.64,10.64,0,0,1,1.71-6,28.17,28.17,0,0,1,4.58-5.1l3.13-2.5v22.22Z" transform="translate(-46.98 -61)"/><path class="cls-1" d="M204.38,319.83a3.71,3.71,0,0,1-3.57-1.94,8.77,8.77,0,0,1-1-4.25v-19.1h6.4l2.1-6.29h-8.5V268.53h-6.32v19.72h-4.09v6.29h4.09v19.21a15.05,15.05,0,0,0,.7,4.55,9.28,9.28,0,0,0,.57,1.53,10.33,10.33,0,0,0,1.52,2.48,9.59,9.59,0,0,0,1,1,10.79,10.79,0,0,0,2.41,1.74,10.13,10.13,0,0,0,4.74,1.06h12.37l3.16-6.31Z" transform="translate(-46.98 -61)"/><path class="cls-1" d="M312.08,331.19a9.28,9.28,0,0,1-.57-3.47V286.23a11.54,11.54,0,0,0-.93-4.66A11.73,11.73,0,0,0,308,277.9a12.92,12.92,0,0,0-3.73-2.41,10.87,10.87,0,0,0-4.29-.88,13.83,13.83,0,0,0-4.46.78,8.71,8.71,0,0,0-3.72,2.49l-.1.1a11,11,0,0,0-3.78-2.38,12.22,12.22,0,0,0-4.4-.88,14.3,14.3,0,0,0-3.78.52,9.57,9.57,0,0,0-3.36,1.68,24.12,24.12,0,0,0-2.72-4.19,26.38,26.38,0,0,0-3.47-3.46,24.15,24.15,0,0,0-7.87-4.35,19.6,19.6,0,0,0-8.61-.91,25.7,25.7,0,0,0-8,2.43,22.81,22.81,0,0,0-6.86,5.12,25.12,25.12,0,0,0-4.78,7.67,24.78,24.78,0,0,0-1.69,9.83,21.12,21.12,0,0,0,1.69,7.95,19.35,19.35,0,0,0,4.19,6.06,18.11,18.11,0,0,0,6,3.83,20.18,20.18,0,0,0,7.09,1.29,18.32,18.32,0,0,0,7.86-1.69l-2.51-5.77a14.06,14.06,0,0,1-5.36,1.16,12.57,12.57,0,0,1-8.7-3.46,11.93,11.93,0,0,1-2.84-4.14,14.83,14.83,0,0,1-1.14-5.52,18.43,18.43,0,0,1,1.19-7.4,18,18,0,0,1,3.51-5.67,17.63,17.63,0,0,1,5.1-3.75,17,17,0,0,1,5.93-1.74,14.79,14.79,0,0,1,5.88.63,16.82,16.82,0,0,1,5.87,3.16,15.38,15.38,0,0,1,4.35,5.23,15.06,15.06,0,0,1,1.63,7v39.88h6.29V286.48a6.32,6.32,0,0,1,1.27-3.83,4.35,4.35,0,0,1,3.78-1.74,5.27,5.27,0,0,1,3.68,1.48,5,5,0,0,1,1.55,3.77v40H295V286.48a6.76,6.76,0,0,1,1.24-3.83,4.22,4.22,0,0,1,3.68-1.84,5.07,5.07,0,0,1,3.78,1.48,5.25,5.25,0,0,1,1.47,3.87v41.55a17,17,0,0,0,.55,4.5c2.43.05,4.76.13,7,.23a9.71,9.71,0,0,1-.64-1.25" transform="translate(-46.98 -61)"/><path class="cls-1" d="M345.41,319.83a3.74,3.74,0,0,1-3.52-1.89,8,8,0,0,1-1.11-4.19V290.86h-4.92a33.29,33.29,0,0,0,3.89-3.62,20.32,20.32,0,0,0,3-4.24l-4.6-3.24a17.69,17.69,0,0,1-4.74,5.13c-2.15,1.68-4.24,3.36-6.29,5a28.58,28.58,0,0,0-5.82,6.45,16.54,16.54,0,0,0-2.57,9.4v9.34a11.55,11.55,0,0,0,.88,4.65,10.75,10.75,0,0,0,2.43,3.53,11,11,0,0,0,3.4,2.25,10.37,10.37,0,0,0,4,.8,10.93,10.93,0,0,0,8.31-3.36,8.37,8.37,0,0,0,3.47,2.4,11.92,11.92,0,0,0,4.19.75h8.18v-6.31Zm-10.92-5.47a7.73,7.73,0,0,1-1.22,3.93c-.72,1.17-2,1.74-3.82,1.74a4.44,4.44,0,0,1-3-1.24,4.66,4.66,0,0,1-1.43-3.68v-9.34a10.43,10.43,0,0,1,1.74-6,28.31,28.31,0,0,1,4.55-5.1l3.16-2.5v22.22Z" transform="translate(-46.98 -61)"/><path class="cls-1" d="M368.16,288.25h-7.43a9.75,9.75,0,0,0-8.05,3.62,13.68,13.68,0,0,0-2.87,8.75v25.52h6.29V300.72a12.51,12.51,0,0,1,.21-2.15,6.57,6.57,0,0,1,.75-2,4.19,4.19,0,0,1,1.4-1.47,4.3,4.3,0,0,1,2.28-.57h9.52Z" transform="translate(-46.98 -61)"/><path class="cls-1" d="M399,319.83v-6.19a14.14,14.14,0,0,0-2-7.35,9.17,9.17,0,0,0-6.13-4.41l10.07-13.64h-7L382.35,302.4V267.56H376v58.57h6.31V313a5.48,5.48,0,0,1,1.5-3.78,4.93,4.93,0,0,1,3.73-1.68,4.66,4.66,0,0,1,3.73,1.63,6.05,6.05,0,0,1,1.42,4.14v9.75a2.75,2.75,0,0,0,1,2.15,3.37,3.37,0,0,0,2.35.9h15.12v-6.31H399Z" transform="translate(-46.98 -61)"/><path class="cls-1" d="M422.85,273.13,418.12,278l-4.72-4.84-4.83,4.94,4.83,4.82,4.72-4.61,4.73,4.61,4.92-4.82Zm-4.94,46.7a3.8,3.8,0,0,1-3.53-1.89,8.23,8.23,0,0,1-1.09-4.19v-3.58h12a3,3,0,0,0,3.13-3.13V299.9a16.46,16.46,0,0,0-.67-4.79,11.42,11.42,0,0,0-2.15-4,10.11,10.11,0,0,0-8-3.44,10.28,10.28,0,0,0-4,.78,10,10,0,0,0-3.36,2.25,11.22,11.22,0,0,0-2.36,3.57,11.81,11.81,0,0,0-.91,4.61v15a14.53,14.53,0,0,0,.75,4.53,15.25,15.25,0,0,0,.6,1.45,11.94,11.94,0,0,0,1.5,2.49,9.14,9.14,0,0,0,1.38,1.4,9.91,9.91,0,0,0,6.69,2.43H439v-6.31H417.91Zm-4.61-21a4.4,4.4,0,0,1,4.29-4.92,3.76,3.76,0,0,1,3.52,1.69,8.42,8.42,0,0,1,1,4.3v4h-8.8v-5.06Z" transform="translate(-46.98 -61)"/><path class="cls-1" d="M447,319.83a3.73,3.73,0,0,1-3.57-1.94,8.77,8.77,0,0,1-1-4.25v-19.1h6.4l2.1-6.29h-8.5V268.53h-6.31v19.72H432v6.29h4.09v19.21a15.36,15.36,0,0,0,.69,4.55,9.31,9.31,0,0,0,.58,1.53,10,10,0,0,0,1.52,2.48l.15.18a10.75,10.75,0,0,0,3.27,2.59,9.91,9.91,0,0,0,4.7,1.07h12.37l3.16-6.32Z" transform="translate(-46.98 -61)"/><path class="cls-2" d="M462.38,319.83c-1.19,2.35-3.5,4.45-6.68,6.31-22.28,13-88.78,14.72-138.42,14.44-1.32,0-2.62,0-3.91,0-21.84-.15-40-.65-48.87-.65-48.81,0-180.73-10.12-208.07,35,37.76-17.23,119-23.76,208.07-20.83C322,356,459.89,356.65,462.94,319.82h-.56Z" transform="translate(-46.98 -61)"/><path class="cls-2" d="M255.29,130.84l1,.11V87.65h0V83.16h0v-1a1,1,0,0,0-1.67-.69h0a1,1,0,0,0-.27.68v48.74Zm50,37.65c5.67-7.54,11.58-14.66,17.28-22.18H188c5.7,7.52,11.61,14.64,17.28,22.18l-74-.65,54.24-7.1-60.23-.59,54.41-6.32-59.94-.53,60.29-7H114.85l34.34-3.79a109.85,109.85,0,0,1,212.25,0l34.3,3.79H330.56l60.29,7-53.84.53,48.3,6.32-54.12.59,48.13,7.1Zm-44.58-37.06,6.13.68V88.44q-3-.42-6.13-.62Zm10.59,1.17,1.95.21V89.58h0V85h0c0-.65.1-1.29-.27-1.66l-.72-.29a1,1,0,0,0-1,1Zm6.43.71,6.14.68V92.68c-2-.74-4.05-1.39-6.14-2Zm10.61,1.17,1.94.21V95.33h0V90.41h0c0-.79.13-1.71-.28-2.12l-.72-.28a1,1,0,0,0-.95,1v45.51Zm6.43.71,6,.66V101.17c-1.95-1.28-3.94-2.47-6-3.57Zm10.45,1.15,1.94.21V105.82l0,0v-5.65l0,0V98.3a.87.87,0,0,0-.28-.67h0a1,1,0,0,0-1.38,0l-.28.67Zm6.43.71,6,.66v-21.9Q316,113.86,314.1,112c-.78-.78-1.59-1.55-2.4-2.32Zm10.45,1.15,1.92.21v-22l0,0V113.8a1,1,0,0,0-.16-.55l-.83-.41a.94.94,0,0,0-1,1v24.4Zm6.43.71,3.73.41a80.29,80.29,0,0,0-3.73-7.91Zm8.76,1,.2,0a5.5,5.5,0,0,1,1.65-.53,89,89,0,0,0-10.61-20.07v3.4a86.85,86.85,0,0,1,7.74,14.58c.35.86.69,1.73,1,2.6m7.05.78a94.19,94.19,0,0,0-22.58-36.36,95.27,95.27,0,0,0-12.13-10.23l-2.14-1.48a94.45,94.45,0,0,0-15.7-8.46,4.74,4.74,0,0,0-.78-.32,93.54,93.54,0,0,0-17.4-5.26,94.77,94.77,0,0,0-36.69,0,93.54,93.54,0,0,0-17.4,5.26,5.16,5.16,0,0,0-.77.31,94.35,94.35,0,0,0-30,20.18,93,93,0,0,0-22.56,36.35l-4.35.48a98,98,0,0,1,186.82,0Zm-171.33-.76.22,0c.32-.87.66-1.73,1-2.59A86.13,86.13,0,0,1,182,122.7v-3.4a90.26,90.26,0,0,0-10.62,20.07,5.08,5.08,0,0,1,1.64.52m5.24-.58,3.74-.41v-7.5a85.08,85.08,0,0,0-3.74,7.91m8.2-.9,1.94-.21V121.35l0,0,0-7.59a1,1,0,0,0-1.66-.69h0a1,1,0,0,0-.28.68Zm6.43-.71,6-.66V109.68c-.82.75-1.62,1.52-2.41,2.31-1.23,1.24-2.43,2.51-3.58,3.81Zm10.45-1.15,1.94-.21v-32l0,0V98.83l0,0c0-.46.06-.85-.26-1.18h0a1,1,0,0,0-1.66.68v38.24Zm6.43-.71,6-.66V97.59c-2.06,1.1-4.06,2.3-6,3.57Zm10.46-1.15,1.94-.21v-40h0V89.63h0c0-.51.08-1-.27-1.31a1,1,0,0,0-1.39,0,1,1,0,0,0-.28.68Zm6.42-.71,6.14-.67V90.7c-2.07.58-4.13,1.24-6.14,2Zm10.6-1.17,1.94-.21V89.18h0V84.62h0c0-.55.1-1.57-1-1.57a1,1,0,0,0-1,1v48.8Zm6.43-.7,6.14-.68V87.82c-2.07.13-4.11.34-6.14.62Zm23.17-48.2h0a5.38,5.38,0,0,1,.37-1.88c-2.17-.28-4.36-.5-6.57-.63l.05,1.92c2.08.13,4.13.32,6.15.59M284,88h0a5.46,5.46,0,0,1,.67-1.78q-3.39-1.17-6.91-2.09v2c2.12.55,4.19,1.19,6.24,1.9m17.23,8.18h0a5.33,5.33,0,0,1,1.06-1.59q-3.63-2.25-7.5-4.15v2.14c2.21,1.11,4.36,2.32,6.44,3.6m17.6,14.29h0l1.42-1.28-8.58-7.94v2.49ZM243.72,83.91h0c2-.27,4.08-.46,6.14-.59l.06-1.93q-3.31.21-6.57.63a5.48,5.48,0,0,1,.37,1.89M226.6,88h0q3.08-1.06,6.23-1.9v-2c-2.34.61-4.65,1.3-6.92,2.09A5.5,5.5,0,0,1,226.6,88m-17.24,8.18h0q3.13-1.94,6.44-3.6V90.4q-3.86,1.91-7.5,4.15a5.27,5.27,0,0,1,1.06,1.59m-17.6,14.29h0l7.16-6.72v-2.49l-8.58,7.94Z" transform="translate(-46.98 -61)"/><path class="cls-3" d="M201.53,117.22c8.13-8.48,29.73-8.82,40.33-8.45q3.33.12,6.63.37c10.8.81,31.91,3.6,41.35,10.25,11.4.35,29.73,2.13,38,10.37,4.39,4.37,5,8.25,4.79,14.22-.17,5.17-.66,10.51-1.18,15.67-.21,2-.13,5.07-1.27,6.8a7.65,7.65,0,0,1-2.87,2.33c-1.44.84-2.81,1.7-4.17,2.66-12.28,8.68-27.61,9.33-42.08,9.55-4.42.06-8.87.11-13.27.41-2.36.17-6.32.47-8.49,1.43a78.08,78.08,0,0,1-18.93,5.6c-15.28,2.5-35.08,3.77-48.25-5.93C180.64,174,177.71,159.92,178,146.41c0-1.47-.06-2.95,0-4.42.37-12.56,13.05-20.53,23.56-24.77" transform="translate(-46.98 -61)"/><path class="cls-4" d="M200.38,115.5c4.49-4.41,12.16-6.71,20.11-7.84a128,128,0,0,1,21.44-.92l3.35.15c1.2.07,2.31.14,3.35.22h0A164.42,164.42,0,0,1,274.29,111c6.25,1.56,12.11,3.62,16.2,6.35a115.73,115.73,0,0,1,19.93,2.24c7.38,1.59,14.39,4.26,18.84,8.69a17,17,0,0,1,4.64,7.37,25.64,25.64,0,0,1,.75,8.35q-.15,4.07-.47,7.93c-.19,2.47-.46,5.16-.73,7.87,0,.34-.06.83-.1,1.33-.13,2.12-.29,4.58-1.49,6.38h0a9.28,9.28,0,0,1-3.51,2.94l0,0c-.65.38-1.33.79-2,1.25h0c-.61.38-1.27.83-2,1.33a51.49,51.49,0,0,1-21,8.29A139.91,139.91,0,0,1,281.08,183l-1,0c-4,.06-8.05.11-12.14.4-1.16.08-2.7.19-4.17.4a14.55,14.55,0,0,0-3.64.86,78.07,78.07,0,0,1-9.5,3.48,81.3,81.3,0,0,1-9.91,2.27,112.33,112.33,0,0,1-25.38,1.63c-8.86-.6-17.47-2.82-24.4-7.93A34.53,34.53,0,0,1,178.73,167,60.65,60.65,0,0,1,176,146.36c0-.66,0-1.34,0-2s0-1.62,0-2.43c.18-6,2.86-11,6.79-15.14,4.83-5.08,11.55-8.79,17.63-11.28M221,111.67c-7.35,1-14.36,3.09-18.06,7l-.3.31-.41.17c-5.73,2.31-12.12,5.76-16.6,10.47-3.29,3.45-5.54,7.59-5.69,12.46,0,.75,0,1.5,0,2.26s0,1.42,0,2.15a57.14,57.14,0,0,0,2.55,19.25,30.56,30.56,0,0,0,10.76,15.16c6.23,4.6,14.12,6.6,22.27,7.16A109.14,109.14,0,0,0,240,186.44a80,80,0,0,0,9.43-2.16,75,75,0,0,0,9-3.31,18.77,18.77,0,0,1,4.71-1.16c1.63-.22,3.25-.35,4.46-.43,4-.29,8.21-.35,12.37-.4l1,0a135.18,135.18,0,0,0,21.54-1.58,47.23,47.23,0,0,0,19.4-7.6c.66-.47,1.36-.94,2.14-1.42h0c.67-.43,1.39-.87,2.18-1.32l0,0a6.27,6.27,0,0,0,2.16-1.69h0c.6-.92.73-2.79.83-4.4,0-.48.07-.95.12-1.48.24-2.45.49-5,.71-7.78s.38-5.29.46-7.75a22,22,0,0,0-.59-7.07,13.09,13.09,0,0,0-3.59-5.65c-3.82-3.8-10.12-6.14-16.83-7.59a112.41,112.41,0,0,0-19.81-2.18l-.62,0-.49-.34c-3.65-2.57-9.26-4.56-15.34-6.06a159.29,159.29,0,0,0-25-3.82c-1.16-.09-2.25-.16-3.27-.22l-3.28-.15a123.29,123.29,0,0,0-20.74.87" transform="translate(-46.98 -61)"/><path class="cls-3" d="M324.22,158.77c-.72,7.06.63,3.83-6.54,8.9-11.13,7.86-25.58,8.26-38.06,8.45-8.81.13-17.86.27-21.82,2a70.5,70.5,0,0,1-17.14,5.08c-29.4,4.8-56.13.87-55.38-36.57,0-1.38-.05-2.84,0-4.16.31-10.31,11.57-17.18,21-20.85,5-6,20.17-8.07,36.2-7.51,18.15.65,37.66,4.58,44.43,10,18.9.45,30,4.15,34.84,8.92,3.14,3.12,3.77,5.62,3.59,11.1-.14,4.21-.77,11.39-1.09,14.6" transform="translate(-46.98 -61)"/><path class="cls-5" d="M190.69,148.24a20.3,20.3,0,0,0,2.62,3.09,28.37,28.37,0,0,0,2.29,2,37,37,0,0,0,4.81,3.12,59,59,0,0,0,21.85,6.47,69.79,69.79,0,0,0,22.84-1.36,66.71,66.71,0,0,0,12.14-4c4.54-2,13.91-2.14,23-2.28,11.53-.17,23.67-.32,34.42-6.66,5.2-3.07,9.4-7.6,4.67-12.3-6.78-6.74-24.14-8-34-8.17-8.12-7.12-32-9.59-43.49-10-7.82-.28-28.61-.8-34,6.89-5.2,2-10.1,3.79-14,7.92-3.72,3.9-6.75,10-3.19,15.32m51,22.53a4.25,4.25,0,0,0-2.85,1.91c-.72,1-.61,1.9.24,1.9a4.29,4.29,0,0,0,2.85-1.9c.73-1.05.62-1.91-.24-1.91M266,140.24q2.72.21-1.13,1.5c-4.67,1.55-8.53-2-1.71-2.81q6.23-.7,2.84,1.31m-75,14.34c7.24,7,19,11.06,30.37,12.29A72.31,72.31,0,0,0,258,161.25c4-1.75,13-1.88,21.82-2,12.11-.18,24.74-.47,36-7.12a23.46,23.46,0,0,0,6.15-5c-.89,13.66,1.73,12-5.64,17.23-10.39,7.33-24.58,7.64-36.21,7.81-9.12.14-18.49.27-23,2.28a67.05,67.05,0,0,1-16.36,4.84c-20,3.27-53.51.61-53-28.6h0q1.8,14.91,13,20.31c-5.87-3.56-9.15-9.08-9.72-16.38m129.3-4-.06,7.62q-4,6.15-16.54,9.32a22,22,0,0,0,13.78-15.11l2.82-1.83m-80,17.22q15-3.21,20.47-6.07-2.08,9.74-2.08,9.74-16.74,8.35-33.29,7.2,15.06-4.18,14.9-10.87M234,120.88c19.87-1.39,51.34,3.12,37.12,12.83q1.62-2.78-4.38-6.28,6.66,4.47,0,9a14.91,14.91,0,0,1-1.7.26,3.58,3.58,0,0,0,.62-.47,1.66,1.66,0,0,0,.59-1.36,2,2,0,0,0-.78-1.32c-1-.88-3-1.62-5.82-1.92a3,3,0,0,0,.88-.8.93.93,0,0,0-.08-1.22l-.32,0-.05.3a.56.56,0,0,1,.05.75,3.34,3.34,0,0,1-1.18.93l-.91,0a10.27,10.27,0,0,1-3.18-.53c-1.44-.57-.46-3.23-1.55-1.05a.79.79,0,0,0,.1.9,2.49,2.49,0,0,0,1,.67,10.76,10.76,0,0,0,3.47.59c3.54.14,5.88.91,6.93,1.84a1.7,1.7,0,0,1,.62,1,1.19,1.19,0,0,1-.42.94,4.27,4.27,0,0,1-1.68.88,38.66,38.66,0,0,1-7.43-.69c-7.32-1.28-16.16-3.6-31.19-9.3-11.93-4.53,1.33-5.38,9.22-5.94m35.35,14.51a5.1,5.1,0,0,1-1.34.73,11.05,11.05,0,0,0,1.34-.73m-62.16,14.05c17.92-4.73,33.51-3.1,43-3.68l-28.42,7.17q22.28-4.76,32.78-7l.26.26a.94.94,0,0,1,.18.93,2.31,2.31,0,0,1-.88,1c-1.3.93-3.82,1.71-7.4,1.85a12.27,12.27,0,0,0-3.63.58,3.64,3.64,0,0,0-1.21.68c-.54.52-.33,1.6-.23,1.33a4.64,4.64,0,0,1,.68-1,2.6,2.6,0,0,1,1-.51,11.26,11.26,0,0,1,3.32-.53l.91,0a2.26,2.26,0,0,1,.95.93.63.63,0,0,1-.26.74l0,.3h.33a1.05,1.05,0,0,0,.39-1.23,2.05,2.05,0,0,0-.67-.81,13.58,13.58,0,0,0,6.32-1.91,2.9,2.9,0,0,0,1.11-1.33,1.39,1.39,0,0,0-.23-1.35l-.11-.12q3.06-.66,5-1.11c-.28,2.68-8.1,10.7-14.66,14.22-7.59,1.55-12.12,3.12-21.43,2.09-15.07-1.66-32.24-7.48-17.16-11.46m72.66-13.94c17.54-7.34,40-.76,28.93,10q-10.87,1.31-27.41-3c-3.13-.8-6.89-1.53-8.6-2.31q4.77-.19,23.95-1.37l-24.3-.12a72.46,72.46,0,0,1,7.43-3.22m-15.17,18.2c-1.89-2.93-.35-8.94,2.31-10.26a1.55,1.55,0,0,0-.4,1.15,2,2,0,0,0,.77,1.33c1,.88,3,1.62,5.83,1.91a2.93,2.93,0,0,0-.88.81.94.94,0,0,0,.08,1.23h.32l.05-.3a.57.57,0,0,1-.06-.75,3.29,3.29,0,0,1,1.19-.93l.9,0a10.34,10.34,0,0,1,3.19.53c1.43.57.46,3.22,1.54,1a.76.76,0,0,0-.11-.89,2.3,2.3,0,0,0-1-.68,11,11,0,0,0-3.47-.59c-3.54-.14-5.88-.91-6.93-1.84a1.7,1.7,0,0,1-.62-1,1.15,1.15,0,0,1,.41-.93,3,3,0,0,1,.5-.38,279.15,279.15,0,0,1,37.62,5.28c-1.28,6-19.54,7.35-41.21,5.23m-54.27-25.84c18.06,3.11,48.22,12.35,44.67,12.79l-1.15.14-41.29-4.51q25,3.75,34.75,5.15c-11.24,1-29.87,2.46-50.5,4.48-5,.49-6.51,2.14-5.17-4.95q2.36-12.39,18.69-13.1m113.77,30.91c-.72,7.06.63,3.83-6.54,8.9-11.13,7.86-25.58,8.26-38.06,8.45-8.81.13-17.86.27-21.82,2a70.5,70.5,0,0,1-17.14,5.08c-29.4,4.8-56.13.87-55.38-36.57,0-1.38-.05-2.84,0-4.16.31-10.31,11.57-17.18,21-20.85,5-6,20.16-8.07,36.2-7.51,18.15.64,37.66,4.58,44.43,10,18.9.46,30,4.15,34.84,8.92,3.14,3.12,3.77,5.62,3.59,11.1-.14,4.22-.77,11.4-1.09,14.61" transform="translate(-46.98 -61)"/><path class="cls-6" d="M131.85,245.7V196.1l-.56-1.21a19.77,19.77,0,0,1-1-3.3,16.79,16.79,0,0,1-.37-3.58,20.79,20.79,0,0,1,.93-6l5.39,1.58a23,23,0,0,0-.55,2.33,11.28,11.28,0,0,0,.09,4.56,11.22,11.22,0,0,0,.74,2.23,15.64,15.64,0,0,0,2.1,3.63q1.34,1.77,2.93,3.72a26.87,26.87,0,0,0,2,2.24c.87.86,1.83,1.86,2.89,3s2.15,2.37,3.3,3.77,2.25,2.87,3.3,4.42a45.36,45.36,0,0,1,4.33,8.42,27.05,27.05,0,0,1,1.81,10,28.47,28.47,0,0,1-.83,6.79,23,23,0,0,1-2.33,5.59,20.81,20.81,0,0,1-4.42,5.39,22.93,22.93,0,0,1-6.6,4,20.93,20.93,0,0,1-8.8,1.4,24.93,24.93,0,0,1-7.16-1.44,18.94,18.94,0,0,1-7.17-4.42,16.89,16.89,0,0,1-3.44-5.07,16.46,16.46,0,0,1-1.3-6.75,26.14,26.14,0,0,1,1.51-8.37l5.19,1.77a18.62,18.62,0,0,0-.89,3.44,21.22,21.22,0,0,0-.23,3,11,11,0,0,0,.93,4.74,11.64,11.64,0,0,0,2.23,3.26,14,14,0,0,0,5.19,3.16,19.31,19.31,0,0,0,5.38,1.12,15.16,15.16,0,0,0,6.63-1,16.73,16.73,0,0,0,5-3.07,16.68,16.68,0,0,0,4.91-8,21.8,21.8,0,0,0,.65-5.39,22.36,22.36,0,0,0-1.49-8.19,37.48,37.48,0,0,0-3.72-7.17,46.21,46.21,0,0,0-6-7.49c-2.11-2.07-3.75-3.83-4.93-5.25V245.7Z" transform="translate(-46.98 -61)"/><path class="cls-6" d="M164.14,221.5a10.32,10.32,0,0,1,.79-4.09,9.73,9.73,0,0,1,2.09-3.16,9.15,9.15,0,0,1,6.51-2.7,9,9,0,0,1,7.07,3.07,10.15,10.15,0,0,1,1.91,3.58,14.71,14.71,0,0,1,.61,4.23v6.33a2.72,2.72,0,0,1-2.8,2.79h-10.6v3.17a7.27,7.27,0,0,0,1,3.72,3.34,3.34,0,0,0,3.12,1.67h18.7v5.59h-18.7a8.85,8.85,0,0,1-7.16-3.4,11.25,11.25,0,0,1-1.86-3.49,12.41,12.41,0,0,1-.65-4Zm1.39-18.42,4.28-4.37L174,203l4.18-4.28,4.38,4.37-4.38,4.28L174,203.27l-4.19,4.09Zm12,22.89v-3.54a7.36,7.36,0,0,0-.88-3.81,3.33,3.33,0,0,0-3.12-1.49,4,4,0,0,0-2.56,1,4.11,4.11,0,0,0-1.25,3.35V226Z" transform="translate(-46.98 -61)"/><path class="cls-6" d="M189.81,240.11H200a6.57,6.57,0,0,0,1.72-.23,5,5,0,0,0,1.62-.74,4.18,4.18,0,0,0,1.26-1.4,4.53,4.53,0,0,0,.51-2.28,4.17,4.17,0,0,0-1.3-3.35,5.16,5.16,0,0,0-3.81-1.3H192.7a2.68,2.68,0,0,1-2-.79,2.71,2.71,0,0,1-.79-2v-5.86a10.2,10.2,0,0,1,2.56-7.35,9.31,9.31,0,0,1,7.11-2.7h8.47l-1.86,5.58h-6.61q-2.42,0-3.21,1.53a8.35,8.35,0,0,0-.88,3.4v2.61H200a10.86,10.86,0,0,1,7.67,2.79,9.63,9.63,0,0,1,3,7.44,9.32,9.32,0,0,1-1.21,4.65H222.1v5.59H187Zm.93,13.22L195,249l4.19,4.19L203.4,249l4.37,4.38-4.37,4.28-4.19-4.19L195,257.61Z" transform="translate(-46.98 -61)"/><path class="cls-6" d="M216.33,203.08l4.28-4.37,4.37,4.37-4.37,4.28Zm4,39.64a9.79,9.79,0,0,1-2-3.49,16,16,0,0,1-.75-4.42v-22.7h5.58v22.61a7.23,7.23,0,0,0,1,3.77,3.37,3.37,0,0,0,3.12,1.62h7.16v5.59h-7.16a10.75,10.75,0,0,1-3.86-.7A7.57,7.57,0,0,1,220.33,242.72Z" transform="translate(-46.98 -61)"/><path class="cls-6" d="M302.86,232.67H285.65v17.68l-5.59,2.79v-40a16.55,16.55,0,0,0-1.3-6.7,15.1,15.1,0,0,0-3.44-5,13.29,13.29,0,0,0-5-2.93,13.72,13.72,0,0,0-6-.55,15.68,15.68,0,0,0-9.77,4.88,16,16,0,0,0-3.12,5,16.63,16.63,0,0,0-1.07,6.56,13.36,13.36,0,0,0,1,4.89,10.6,10.6,0,0,0,2.51,3.67,10.92,10.92,0,0,0,3.58,2.28,11.08,11.08,0,0,0,4.14.79,12.67,12.67,0,0,0,4.75-1l2,4.75a17.45,17.45,0,0,1-7.16,1.48,17.12,17.12,0,0,1-6.1-1.11,15.46,15.46,0,0,1-5.21-3.31,16.8,16.8,0,0,1-3.67-5.25,17.74,17.74,0,0,1-1.49-7,21.86,21.86,0,0,1,5.72-15.54,20.36,20.36,0,0,1,6.1-4.56,22.79,22.79,0,0,1,7.07-2.14,18.91,18.91,0,0,1,7.86.75,19.61,19.61,0,0,1,7.07,3.86,20,20,0,0,1,5.07,6.74,21.47,21.47,0,0,1,2,9.4v14h17.21V188.94h5.58v53.31a8.74,8.74,0,0,0,.51,3.17,6.81,6.81,0,0,0,1.17,2,4.67,4.67,0,0,0,3.44,1.4v5.58a10.49,10.49,0,0,1-4-.79,9.74,9.74,0,0,1-3.44-2.37,11.84,11.84,0,0,1-2.38-3.82,14.08,14.08,0,0,1-.88-5.21Z" transform="translate(-46.98 -61)"/><path class="cls-6" d="M315,227.65a14.59,14.59,0,0,1,2.28-8.33,25.31,25.31,0,0,1,5.17-5.72q2.7-2.23,5.58-4.47a15.76,15.76,0,0,0,4.19-4.56l4.09,2.89a18.47,18.47,0,0,1-2.7,3.76,30,30,0,0,1-3.44,3.21h4.37v20.29a7.28,7.28,0,0,0,1,3.72,3.33,3.33,0,0,0,3.12,1.67h7.25v5.59h-7.25a10.57,10.57,0,0,1-3.73-.66,7.42,7.42,0,0,1-3.07-2.14,9.59,9.59,0,0,1-7.35,3,9,9,0,0,1-3.53-.7,9.42,9.42,0,0,1-3-2,9.56,9.56,0,0,1-2.15-3.11,10.4,10.4,0,0,1-.79-4.14Zm14-12.1-2.79,2.23a24.39,24.39,0,0,0-4.05,4.52,9.37,9.37,0,0,0-1.53,5.35v8.28a4.11,4.11,0,0,0,1.25,3.25,3.93,3.93,0,0,0,2.65,1.12,3.7,3.7,0,0,0,3.4-1.54,7,7,0,0,0,1.07-3.48Z" transform="translate(-46.98 -61)"/><path class="cls-6" d="M342.49,194.62h5.59v40a7.8,7.8,0,0,0,.93,3.77,3.29,3.29,0,0,0,3.16,1.72h7.91v5.59h-7.91a8.9,8.9,0,0,1-4.19-.93,9.76,9.76,0,0,1-3-2.47,10,10,0,0,1-1.86-3.54,13.65,13.65,0,0,1-.61-4Z" transform="translate(-46.98 -61)"/><path class="cls-6" d="M355.8,227.65a14.59,14.59,0,0,1,2.28-8.33,25.51,25.51,0,0,1,5.16-5.72q2.7-2.23,5.58-4.47a15.62,15.62,0,0,0,4.19-4.56l4.09,2.89a18.81,18.81,0,0,1-2.69,3.76,30.92,30.92,0,0,1-3.45,3.21h4.38v20.29a7.27,7.27,0,0,0,1,3.72,3.33,3.33,0,0,0,3.12,1.67h7.26v5.59h-7.26a10.56,10.56,0,0,1-3.72-.66,7.36,7.36,0,0,1-3.07-2.14,9.59,9.59,0,0,1-7.35,3,9.05,9.05,0,0,1-3.54-.7,9.53,9.53,0,0,1-3-2,9.38,9.38,0,0,1-2.14-3.11,10.23,10.23,0,0,1-.79-4.14Zm13.95-12.1L367,217.78a24.31,24.31,0,0,0-4,4.52,9.3,9.3,0,0,0-1.54,5.35v8.28a4.11,4.11,0,0,0,1.26,3.25,3.91,3.91,0,0,0,2.65,1.12,3.69,3.69,0,0,0,3.39-1.54,7,7,0,0,0,1.07-3.48Z" transform="translate(-46.98 -61)"/><path class="cls-6" d="M383.34,194.62h5.58v40a7.8,7.8,0,0,0,.93,3.77,3.29,3.29,0,0,0,3.16,1.72h7.91v5.59H393a8.83,8.83,0,0,1-4.18-.93,9.8,9.8,0,0,1-3-2.47,10,10,0,0,1-1.86-3.54,14,14,0,0,1-.6-4Z" transform="translate(-46.98 -61)"/></svg>