<?xml version="1.0" encoding="utf-8"?>
<!-- Generator: Adobe Illustrator 25.2.1, SVG Export Plug-In . SVG Version: 6.00 Build 0)  -->
<svg version="1.1" id="Layer_1" xmlns="http://www.w3.org/2000/svg" xmlns:xlink="http://www.w3.org/1999/xlink" x="0px" y="0px"
	 viewBox="0 0 795.44 139.02" style="enable-background:new 0 0 795.44 139.02;" xml:space="preserve">
<style type="text/css">
	.st0{fill:#3EA7A5;}
	.st1{fill:#F2561D;}
</style>
<g>
	<polygon class="st0" points="144.29,56.07 144.29,56.06 144.28,56.06 144.28,56.06 144.28,56.07 115.28,115.34 144.28,115.34 
		144.29,115.34 173.29,115.34 	"/>
	<g>
		<path class="st1" d="M123.6,33.55c-4.17-9.15-12.92-16.77-22.57-22.94C99.9,9.89,79.18-0.89,78.64,0.06
			C78.64,0.06,0,139.02,0,139.02h64.44l46.82-87.68c0,0,6.04,5.83,6.83,6.61c0.28-0.24,0.5-0.52,0.74-0.78
			c0.66-0.76,1.3-1.53,1.89-2.32c0.45-0.6,0.88-1.22,1.29-1.84c0.45-0.69,0.87-1.39,1.26-2.1c0.41-0.75,0.77-1.51,1.08-2.29
			c0.32-0.78,0.58-1.58,0.76-2.39c0.14-0.62,0.24-1.26,0.28-1.89c0-0.03-0.02-0.06-0.02-0.09C125.88,40.65,125.2,37.05,123.6,33.55z
			"/>
		<path class="st1" d="M164.96,33.55c4.17-9.15,12.92-16.77,22.57-22.94c1.13-0.72,21.85-11.51,22.39-10.56
			c0,0,78.64,138.96,78.64,138.96h-64.43l-46.82-87.68c0,0-6.04,5.83-6.83,6.61c-0.28-0.24-0.5-0.52-0.74-0.78
			c-0.66-0.76-1.3-1.53-1.89-2.32c-0.45-0.6-0.88-1.22-1.29-1.84c-0.45-0.69-0.87-1.39-1.26-2.1c-0.41-0.75-0.77-1.51-1.08-2.29
			c-0.32-0.78-0.58-1.58-0.76-2.39c-0.14-0.62-0.24-1.26-0.28-1.89c0-0.03,0.02-0.06,0.02-0.09
			C162.68,40.65,163.37,37.05,164.96,33.55z"/>
	</g>
</g>
<g>
	<path class="st0" d="M407.66,106.66h-15.33V89.43h-53.9v17.23H323.1v-35.1c0-5.12,1.06-9.84,3.18-14.15
		c2.12-4.31,5.07-8.01,8.85-11.11c3.77-3.1,8.23-5.51,13.39-7.24c5.15-1.73,10.77-2.59,16.87-2.59h34.55c1.06,0,2.06,0.16,3.01,0.49
		c0.94,0.33,1.77,0.78,2.48,1.37c0.71,0.59,1.26,1.27,1.65,2.06c0.39,0.78,0.59,1.62,0.59,2.5V106.66z M338.43,76.7h53.9V49.19
		h-26.95c-0.47,0-1.47,0.06-2.98,0.17c-1.51,0.11-3.26,0.4-5.25,0.86c-1.99,0.46-4.08,1.16-6.28,2.1c-2.2,0.95-4.23,2.25-6.07,3.92
		c-1.85,1.66-3.37,3.74-4.57,6.24c-1.2,2.5-1.8,5.52-1.8,9.08V76.7z"/>
	<path class="st0" d="M451.77,106.66h-6.84c-2.2,0-4.55-0.31-7.05-0.93c-2.5-0.62-4.83-1.64-6.99-3.06
		c-2.16-1.42-3.95-3.26-5.37-5.53c-1.42-2.27-2.12-5.05-2.12-8.35V31.38h15.33v57.42c0,1.57,0.59,2.81,1.77,3.74
		c1.18,0.93,2.65,1.4,4.42,1.4h6.84V106.66z"/>
	<path class="st0" d="M600.25,106.66H584.8v-41.8l-27.18,39.7c-0.67,1.01-1.6,1.78-2.8,2.3c-1.2,0.52-2.49,0.78-3.86,0.78
		c-1.34,0-2.59-0.26-3.75-0.78c-1.16-0.52-2.07-1.29-2.74-2.3l-27.3-39.7v41.8h-15.33V41.9c0-1.47,0.52-2.77,1.56-3.92
		c1.04-1.14,2.41-1.91,4.1-2.3c0.83-0.16,1.65-0.22,2.48-0.17c0.83,0.05,1.62,0.2,2.39,0.44c0.77,0.24,1.46,0.59,2.09,1.03
		c0.63,0.44,1.16,0.97,1.59,1.59l34.91,50.37l34.91-50.37c0.9-1.24,2.15-2.12,3.74-2.64c1.59-0.52,3.25-0.6,4.98-0.24
		c1.65,0.39,3.01,1.16,4.07,2.3c1.06,1.14,1.59,2.45,1.59,3.92V106.66z"/>
	<path class="st0" d="M681.86,89.14c0,1.76-0.37,3.66-1.12,5.7c-0.75,2.04-1.96,3.93-3.63,5.68c-1.67,1.75-3.85,3.21-6.54,4.38
		c-2.69,1.17-5.97,1.76-9.82,1.76H633.1c-2.12,0-4.41-0.31-6.87-0.93c-2.46-0.62-4.74-1.62-6.84-3.01c-2.1-1.39-3.86-3.2-5.28-5.43
		c-1.42-2.23-2.12-4.95-2.12-8.15c0-1.76,0.37-3.67,1.12-5.73c0.75-2.06,1.95-3.96,3.63-5.7c1.67-1.75,3.85-3.21,6.55-4.38
		c2.69-1.17,5.97-1.76,9.82-1.76h27.66V83.7H633.1c-2.08,0-3.7,0.53-4.84,1.59c-1.14,1.06-1.71,2.37-1.71,3.94
		c0,1.66,0.66,2.96,1.98,3.89c1.32,0.93,2.88,1.39,4.69,1.39h27.54c2.08,0,3.69-0.52,4.84-1.57c1.14-1.04,1.71-2.35,1.71-3.92V71.27
		c0-1.66-0.62-2.99-1.86-3.96c-1.24-0.98-2.8-1.47-4.69-1.47h-33.67V53.75h33.67c2.12,0,4.41,0.31,6.87,0.93
		c2.46,0.62,4.74,1.62,6.84,3.01c2.1,1.39,3.86,3.2,5.28,5.43c1.42,2.24,2.12,4.95,2.12,8.15V89.14z"/>
	<path class="st0" d="M710.52,106.66h-15.33V31.38h15.33V106.66z M765.83,106.66H750.5v-35.1c0-1.66-0.51-2.93-1.53-3.79
		c-1.02-0.86-2.56-1.3-4.6-1.3h-27.66V53.75h27.66c1.45,0,2.99,0.14,4.6,0.42c1.61,0.28,3.21,0.71,4.81,1.3
		c1.59,0.59,3.12,1.35,4.57,2.28c1.45,0.93,2.73,2.06,3.83,3.38c1.1,1.32,1.98,2.85,2.65,4.58c0.67,1.73,1,3.69,1,5.87V106.66z"/>
	<path class="st0" d="M795.44,42.88H780.1v-11.5h15.33V42.88z M795.44,106.66H780.1V53.75h15.33V106.66z"/>
</g>
</svg>
